<?xml version="1.0" encoding="utf-8"?>
<!-- Generator: Adobe Illustrator 25.1.0, SVG Export Plug-In . SVG Version: 6.00 Build 0)  -->
<svg version="1.1" id="Calque_1" xmlns="http://www.w3.org/2000/svg" xmlns:xlink="http://www.w3.org/1999/xlink" x="0px" y="0px"
	 viewBox="0 0 855.8 250" style="enable-background:new 0 0 855.8 250;" xml:space="preserve">
<style type="text/css">
	.st0{fill:#3FA9D9;}
	.st1{fill:#4B5157;}
	.st2{fill:#E22D7B;}
	.st3{opacity:0.1;fill:#1D1E1C;enable-background:new    ;}
	.st4{fill:#4C5157;}
	.st5{fill:#652D6D;}
	.st6{fill:#FFFFFF;}
	.st7{fill:none;stroke:#4B5157;stroke-width:0.25;stroke-linecap:round;stroke-linejoin:round;}
	.st8{opacity:0.1;enable-background:new    ;}
	.st9{fill:#4B5157;stroke:#4B5157;stroke-width:5.000000e-02;stroke-miterlimit:10;}
</style>
<g id="Groupe_1480" transform="translate(-232.538 -482.19)">
	<circle id="Ellipse_5" class="st0" cx="601" cy="493.7" r="5.5"/>
	<g id="Groupe_1379" transform="translate(506.094 482.19)">
		<path id="Tracé_1931" class="st1" d="M109.3,0h-4.9c-7.5,0-14.7,2.1-21,6.2c-1.4,0.9-2.7,1.9-3.9,3c-7.8-0.9-11.1,4.3-11.3,4.5
			l-0.3,0.4l3.2,4.8l-1.4,1.9l0.6,0.9l-2.2,2.8l4.3,6.5l3.4-0.9l0.6,0.9l2.3-0.6l3.2,4.8l0.5-0.1c0.3,0,6.3-1.1,8.6-8.6
			c8.2-4,14.7-10.8,18.2-19.3L111,3V2.9C111.4,1.5,110.5,0.3,109.3,0L109.3,0z M69.8,14.1c2-2.3,5-3.6,8.1-3.5
			c-1.5,1.4-2.8,2.9-4,4.6l-1.8,2.4L69.8,14.1z M73.1,29.2l-3-4.6l1.1-1.5l3.7,5.6L73.1,29.2z M82.6,33.5L80.3,30l2.9-0.7
			c2-0.5,3.9-1.1,5.8-1.9C87.9,30.4,85.6,32.6,82.6,33.5z M94.4,22.9c-3.5,2.3-7.4,4-11.5,5l-5.7,1.4L71.7,21l3.5-4.7
			C81.4,7.8,91,2.5,101.5,1.7l5.1,7.7C103.7,14.8,99.5,19.5,94.4,22.9L94.4,22.9z M107.8,6.7c-0.1,0.3-0.3,0.7-0.4,1l-4-6.1
			c0.4,0,0.7,0,1.1,0h4.7c0.4,0.1,0.6,0.5,0.6,0.8L107.8,6.7z"/>
		<path id="Tracé_1932" class="st1" d="M74.1,22.4l2.6,4l11.2-5.9l-4-6.1L74.1,22.4z M85.6,19.9l-8.4,4.4l-1-1.6l7.4-6L85.6,19.9z"
			/>
		<path id="Tracé_1933" class="st1" d="M96.2,5.3c-3.4-0.7-6.7,1.5-7.4,4.9s1.5,6.7,4.9,7.4c3.4,0.7,6.7-1.5,7.4-4.9
			S99.6,6,96.2,5.3z M94,16.1c-2.5-0.5-4.2-3-3.7-5.5s3-4.2,5.5-3.7s4.2,3,3.7,5.5C99,15,96.5,16.6,94,16.1L94,16.1z"/>
		<path id="Tracé_1934" class="st1" d="M0.8,138.6H0.7c-0.4-0.1-0.7-0.5-0.6-0.9c0.3-1.5,0.6-3.1,1-4.7c0.1-0.4,0.5-0.7,0.9-0.6
			s0.7,0.5,0.6,0.9l0,0c-0.3,1.6-0.7,3.1-0.9,4.6C1.5,138.3,1.2,138.6,0.8,138.6z"/>
		<path id="Tracé_1935" class="st1" d="M2.9,127.4c-0.1,0-0.1,0-0.2,0c-0.4-0.1-0.7-0.5-0.6-0.9c0.5-2,1-4,1.5-6
			c0.5-1.8,1-3.6,1.6-5.4c0.1-0.4,0.6-0.6,1-0.5s0.6,0.5,0.5,0.9c-0.6,1.8-1.1,3.6-1.6,5.4c-0.5,1.9-1,3.9-1.5,5.9
			C3.6,127.2,3.3,127.4,2.9,127.4z"/>
		<path id="Tracé_1936" class="st1" d="M9,109c-0.1,0-0.2,0-0.3,0c-0.4-0.2-0.6-0.6-0.5-1c1.3-3.4,2.7-6.9,4.1-10.3
			c0.2-0.4,0.6-0.6,1-0.4l0,0c0.4,0.2,0.6,0.6,0.4,1c-1.5,3.4-2.9,6.8-4.1,10.2C9.6,108.8,9.3,109,9,109z"/>
		<path id="Tracé_1937" class="st1" d="M17.6,89.1c-0.1,0-0.2,0-0.4-0.1c-0.4-0.2-0.5-0.7-0.4-1.1l0,0c2.4-4.6,4.9-9.3,7.7-13.8
			c0.2-0.4,0.7-0.5,1.1-0.3s0.5,0.7,0.3,1.1l0,0c-2.7,4.5-5.3,9-7.6,13.7C18.2,88.9,17.9,89.1,17.6,89.1z"/>
		<path id="Tracé_1938" class="st1" d="M29.6,68.6c-0.2,0-0.3,0-0.4-0.1c-0.4-0.2-0.5-0.7-0.2-1.1l0,0c2.9-4.3,6-8.5,9.2-12.6
			c0.3-0.3,0.8-0.4,1.1-0.1c0.3,0.3,0.4,0.8,0.1,1.1c-3.2,4-6.2,8.2-9.1,12.5C30.1,68.5,29.9,68.6,29.6,68.6z"/>
		<path id="Tracé_1939" class="st1" d="M43,50.8c-0.4,0-0.8-0.4-0.8-0.8c0-0.2,0.1-0.4,0.2-0.5c3.3-3.9,6.7-7.7,10.3-11.3
			c0.3-0.3,0.8-0.3,1.1,0s0.3,0.8,0,1.1c-3.5,3.6-7,7.4-10.2,11.2C43.5,50.7,43.3,50.8,43,50.8z"/>
		<path id="Tracé_1940" class="st1" d="M58.6,34.3c-0.2,0-0.4-0.1-0.6-0.2c-0.3-0.3-0.3-0.8,0-1.1c2.2-2.1,4.5-4.1,6.8-6.1
			c0.3-0.3,0.8-0.2,1.1,0.1s0.2,0.8-0.1,1.1c-2.3,2-4.5,3.9-6.7,6C59,34.2,58.8,34.3,58.6,34.3z"/>
		<path id="Tracé_1941" class="st1" d="M4,143.7L4,143.7c-0.5-0.1-0.8-0.5-0.7-0.9c0.3-1.5,0.6-3,0.9-4.5c0.1-0.4,0.5-0.7,0.9-0.6
			s0.7,0.5,0.6,0.9c-0.3,1.5-0.6,3-0.9,4.5C4.7,143.5,4.4,143.7,4,143.7z"/>
		<path id="Tracé_1942" class="st1" d="M5.9,134.8c-0.1,0-0.1,0-0.2,0c-0.4-0.1-0.7-0.5-0.6-0.9l0,0c0.5-2,1-3.9,1.5-5.8
			c0.1-0.4,0.5-0.7,0.9-0.6c0,0,0,0,0.1,0c0.4,0.1,0.7,0.5,0.5,1l0,0c-0.5,1.9-1,3.8-1.5,5.8C6.6,134.6,6.3,134.8,5.9,134.8z"/>
		<path id="Tracé_1943" class="st1" d="M8.8,124.2c-0.1,0-0.2,0-0.2,0c-0.4-0.1-0.6-0.6-0.5-1l0,0c0.9-3.1,2-6.1,3.1-9.2
			c0.1-0.4,0.6-0.6,1-0.5l0,0c0.4,0.1,0.6,0.6,0.5,1l0,0c-1.1,3-2.1,6.1-3,9.1C9.5,123.9,9.2,124.2,8.8,124.2z"/>
		<path id="Tracé_1944" class="st1" d="M14.5,108.3c-0.1,0-0.2,0-0.3-0.1c-0.4-0.2-0.6-0.6-0.4-1l0,0c1.5-3.6,3.1-7.3,4.8-10.8
			c0.2-0.4,0.7-0.5,1-0.4c0.4,0.2,0.6,0.6,0.4,1l0,0c-1.7,3.5-3.3,7.1-4.8,10.7C15.1,108.1,14.8,108.3,14.5,108.3z"/>
		<path id="Tracé_1945" class="st1" d="M23.6,89.1c-0.1,0-0.3,0-0.4-0.1c-0.4-0.2-0.5-0.7-0.3-1l0,0c2.4-4.4,5.1-8.9,7.8-13.1
			c0.2-0.4,0.7-0.4,1.1-0.2c0.3,0.2,0.4,0.7,0.2,1.1c-2.8,4.2-5.4,8.6-7.8,13C24.2,89,23.9,89.1,23.6,89.1z"/>
		<path id="Tracé_1946" class="st1" d="M37.4,67.4c-0.2,0-0.3-0.1-0.5-0.1c-0.3-0.2-0.4-0.7-0.2-1.1l0,0c4-5.5,8.3-10.8,12.9-15.9
			c0.3-0.3,0.8-0.3,1.1-0.1c0.3,0.3,0.3,0.8,0.1,1.1l0,0C46.3,56.3,42,61.6,38,67C37.9,67.2,37.6,67.4,37.4,67.4z"/>
		<path id="Tracé_1947" class="st1" d="M55.8,45.5c-0.4,0-0.8-0.3-0.8-0.8c0-0.2,0.1-0.4,0.2-0.6c4.1-4.2,8.3-8.1,12.8-12
			c0.3-0.3,0.8-0.2,1.1,0.1c0.3,0.3,0.2,0.8-0.1,1.1c-4.4,3.8-8.6,7.7-12.7,11.9C56.3,45.4,56.1,45.5,55.8,45.5z"/>
	</g>
	<g id="Groupe_1421" transform="translate(837.428 632.8)">
		<path id="Tracé_1948" class="st2" d="M113.4,97.7l-0.2,1.7h11.2l0.3-1.7l5.1-0.9c0,0,14.3-4.2,8-14.1s-21.2-9.2-30.3-5.6
			s-6.3,11.1-4.8,14.5S113.4,97.7,113.4,97.7z"/>
		<path id="Tracé_1949" class="st1" d="M102.7,26.3c-0.2-2.3-1.6-3.4-2.3-5.1c-0.1-0.3-0.2-0.6-0.3-1l-0.1-0.9
			c0-4.6,2.4-6.8,4.5-8.6c10.4,4.8,20.8-1,20.8,13.6c0,4.9-3.3,12.9-9.2,15c-0.9,0.3-1.9,0.5-2.9,0.5c-6.3,0-8.1-6.3-8.1-8.8v-0.2
			c1.3-1.1,2.5-2.5,2.5-3.9c0-0.7-0.5-1.9-1.2-1.9l0,0c-1.4,0.1-2.6,0.7-3.5,1.8l0,0C102.7,26.6,102.7,26.5,102.7,26.3z"/>
		<path id="Tracé_1959" class="st3" d="M74.2,52.1c0.3-0.8,0.5-1.7,0.4-2.6c0-0.2-0.2-0.2-0.4-0.2l0,0c0-0.4,0-0.8-0.1-1.1
			c0-0.4,0-0.8,0-1.1c0-3.1,0-6.3-0.1-9.4s-0.1-6.3-0.2-9.4c-0.1-2.8,0.1-6.2-0.8-8.9c-0.1-0.4-0.6-0.7-1-0.5
			c-0.3,0.1-0.4,0.3-0.5,0.5c-0.9,2.7-0.8,6-0.8,8.9c-0.1,3.3-0.1,6.5,0,9.7c0,3.1,0.2,6.3,0.3,9.4c0.1,2.6,0.1,5.2,0.5,7.8
			c-0.1,0-0.2,0.1-0.3,0.1c-1,0.1-1.9,0.1-2.9,0.1c-1.9,0-3.9,0.1-5.8,0.2c-3.6,0.1-7.3,0.2-10.9,0.3S44.3,56,40.7,56
			c-1.9,0-3.9,0-5.8,0.1c-1.6,0.2-3.1,0.2-4.7,0.1c-0.7-2.8-0.3-5.8-0.4-8.7c0-3.3,0-6.5,0-9.8c-0.1-6.1,0.3-12.5-0.8-18.4
			c-0.2-1-1.7-0.7-1.7,0.2c0,2.5,0.1,4.9,0.2,7.4c0.1,1.4,0.1,2.9,0.4,4.3c0,3,0,6,0.1,9l0.3,10.1c-0.1,1.4,0,2.8,0.2,4.2
			c-0.1-0.1-0.3-0.1-0.4,0l0,0c-2.5,3.5,5.3,3.6,6.8,3.6c5.3,0.3,10.7,0.2,16,0.2s10.7-0.1,16-0.3c1.9-0.1,4.5,0.3,6.3-0.6
			c0.2-0.1,0.4-0.2,0.5-0.3c1.2-0.9,1.1-2.3,0.6-3.6c0,0,0-0.1-0.1-0.1c0-0.2,0-0.5,0-0.7C74.2,52.7,74.2,52.1,74.2,52.1z
			 M28.8,55.2c-0.1-0.1-0.1-0.2-0.1-0.3C28.7,55,28.8,55.1,28.8,55.2L28.8,55.2z"/>
		<path id="Tracé_1960" class="st3" d="M77.9,45.5c1.3,0.1,2.6,0,3.9-0.3c2.1-0.8,1.5-4.2,1.4-5.9c0-3.2-0.1-6.3-0.3-9.5
			c-0.1-1.7-0.1-3.4-0.2-5.1c0-0.7-0.1-1.5-0.2-2.2L82.4,21c0-0.2,0-0.5-0.1-0.7c0.1-0.2,0.1-0.4,0-0.6v-0.1
			c-0.2-0.7-0.9-1.1-1.6-0.9c-0.2,0.1-0.4,0.2-0.5,0.3c-0.5,0.6-0.7,1.3-0.6,2c-0.1,1.5,0,2.9,0,4.4c0.1,3,0.1,6.1,0.3,9.1l0.3,4.4
			c0,0.7,0.1,1.5,0.2,2.2c0.2,0.6,0.2,1.3,0.2,1.9c-0.2,0.4-2.9,0.6-3.4,0.7c-1.1,0.2-2.2,0.3-2.9,1.1c-0.1,0.1-0.1,0.2,0,0.2l0,0
			C75.4,45.7,76.8,45.5,77.9,45.5z"/>
		<path id="Tracé_1961" class="st3" d="M19.8,60.6c0.2,1.4,0.7,2.6,1.5,3.7c0.1,1,0.6,1.8,1.4,2.4c1.6,1.3,3.9,1.3,5.8,1.5
			c5.4,0.6,10.9,0.7,16.4,0.8c0.8,0,1.4-0.7,1.3-1.4c0-0.5-0.3-0.9-0.7-1.2c2.3,0,4.6,0,6.9,0c0,0.1,0,0.3,0,0.4l1.1,8.2
			c0.2,2.4,0.5,4.7,0.9,7.1c0.2,1.3,2.2,1.1,2.5,0.1c0.4,0.7,1.3,0.9,2,0.5c0.6-0.3,0.8-1,0.7-1.6c-0.5-2.8-0.9-5.6-1.2-8.4
			c-0.1-1.4-0.3-2.8-0.6-4.2c2.2,0.3,4.4,0.6,6.6,0.7c2.7,0.2,5.9,0.8,8.5-0.1c0.6-0.2,1-0.7,1-1.3c0-0.6-0.4-1.1-0.9-1.3
			c0.8-0.2,1.6-0.5,2.4-0.9c1.3-0.6,0.5-2.3-0.7-2.5c-4.3-0.6-8.9-0.5-13.2-0.8c-4.6-0.3-9.3-0.5-13.9-0.4c-4.5,0-9,0.2-13.5,0.6
			c-2.2,0.2-4.3,0.6-6.5,0.8c-1.7,0.2-3.5,0.2-4.7-0.9c-0.7-1.6-1.1-3.3-1.1-5c-0.2-3.7-0.3-7.4-0.5-11.1c-0.2-3.5,0.1-7.3-0.7-10.7
			l0,0c-1.1,4-0.9,8.7-0.9,12.8C19.4,52.5,19.1,56.7,19.8,60.6z"/>
		<path id="Tracé_1962" class="st3" d="M93.1,21.1c1.6-1.6,1.1-4.3,1-6.3c-0.1-2.4-0.2-4.8-0.5-7.2c-0.2-2.1-0.3-4.4-1.4-6.2
			c-0.1-0.1-0.3-0.2-0.4-0.1c-0.1,0-0.1,0.1-0.1,0.2c-0.4,1.7-0.5,3.4-0.4,5.1c-0.1,1.8-0.2,3.6-0.4,5.4c-0.1,0.9-0.2,1.8-0.3,2.7
			c-0.1,0.5-0.1,2.4-0.5,2.8c-0.7,0.3-1.5,0.5-2.2,0.6l-0.1-0.3c-0.3-1.5-1-3-2-4.2c0.3-0.5,0.3-1.2-0.1-1.7
			c-0.9-1.1-2.1-0.8-3.2-1.4c-1.1-0.6-1.3-2.1-2.6-2.6c-0.5-0.2-1.1-0.2-1.7,0C77.6,8,77,8.6,76.4,8.6c-1.1-0.1-1.7-1.2-2.8-0.4
			c-0.4,0.2-0.5,0.7-0.2,1l0.1,0.1c0.6,0.8,1,1.7,2,2.2c0.5,0.2,1.1,0.3,1.6,0.2c0.6-0.1,1.3-0.7,1.8-0.7c0.4,0,1.2,1.4,2,1.8
			c1,0.6,2.2,0.5,3.2,1.1l0,0c0.2,0.2,0.3,0.3,0.5,0.5c0.4,1.2,0.5,2.5,0.4,3.8c0,1.7-0.1,3.3,0,5c0.1,3.3,0.1,6.7,0,10
			c0,6.7-0.2,13.3-0.4,20c0,1,1.3,1.2,1.8,0.5l1-1.3c0.4-0.6-0.1-1.2-0.7-1.4c0-0.4,0.1-0.7,0.1-1.1c0.1,0.5,0.3,1,0.6,1.4
			c0.3,0.5,1.1,0.7,1.6,0.4c0.1,0,0.1-0.1,0.2-0.1c1.2-1.3,1.1-3.1,1.3-4.8c0.2-1.9,0.3-3.8,0.3-5.8c-0.4-3.9-0.8-8-1.4-12
			c-0.3-2-0.5-4-0.8-6c0.1,0,0.1,0,0.2-0.1C90.3,22.3,92,22.2,93.1,21.1z"/>
		<g id="Groupe_1387" transform="translate(119.294 88.645)">
			<g id="Groupe_1386">
				<path id="Tracé_1969" class="st4" d="M2.1,4.1c-1.1,0-1.9-0.9-1.9-2c0-1,0.7-1.8,1.7-1.9c0.1,0,0.2,0,0.3,0c0.1,0,0.1,0,0.2,0
					c0.3,0,0.5,0.1,0.7,0.3c0.1,0.1,0.1,0.1,0.2,0.2C3.8,1,4.1,1.5,4.1,2.1C4.1,3.2,3.2,4.1,2.1,4.1z M1.9,1.1
					C1.3,1.3,1,1.8,1.1,2.4c0.1,0.4,0.5,0.8,1,0.8c0.6,0,1.1-0.5,1.1-1.1c0-0.3-0.2-0.4-0.5-0.7c0-0.1-0.1-0.2-0.2-0.3H2.4
					c-0.1,0-0.2,0-0.3,0C2,1.1,2,1.1,1.9,1.1L1.9,1.1z"/>
				<path id="Tracé_1970" class="st4" d="M2.1,4.3C0.9,4.3,0,3.3,0,2.1C0,1,0.8,0.1,1.9,0C2,0,2.1,0,2.2,0h0.1h0.1
					C2.7,0,3,0.1,3.3,0.3c0.1,0.1,0.1,0.1,0.2,0.2c0.5,0.4,0.8,1,0.8,1.6C4.3,3.3,3.3,4.3,2.1,4.3z M1.9,0.4C1,0.5,0.3,1.3,0.4,2.2
					c0,0.9,0.7,1.7,1.7,1.8l0,0c1,0,1.8-0.8,1.9-1.9c0-0.5-0.3-0.9-0.7-1.2C3.2,0.8,3.1,0.7,3,0.6S2.7,0.4,2.4,0.4H2.2H2.1
					C2.1,0.4,2,0.4,1.9,0.4L1.9,0.4z M2.1,3.4c-0.7,0-1.2-0.6-1.2-1.3c0-0.6,0.4-1,1-1.2c0.1,0,0.2,0,0.3,0h0.1h0.2h0.2V1
					c0.1,0.1,0.2,0.2,0.2,0.2C3.2,1.5,3.4,1.7,3.4,2C3.4,2.8,2.8,3.4,2.1,3.4L2.1,3.4z M1.9,1.3C1.5,1.4,1.3,1.8,1.3,2.2
					S1.6,3,2.1,3l0,0C2.6,3,3,2.6,3,2.1c0-0.2-0.1-0.3-0.4-0.5L2.4,1.3l0,0c-0.1,0-0.1,0-0.2,0H2.1C2,1.3,2,1.3,1.9,1.3L1.9,1.3z"/>
			</g>
		</g>
		<path class="st4" d="M83.6,44.2c-0.1-1-0.2-2.3-0.4-4.3c-0.1-1.1-0.2-2.2-0.3-3.4c-0.1-1.6-0.2-2.8-0.3-3.8c0,0,0,0,0-0.1
			c0-0.1,0-0.1-0.1-0.2c-0.1-1-0.2-2-0.2-2.9c0,0,0,0,0,0c0,0,0,0,0,0c0,0,0,0,0,0c-0.1-1.3-0.1-2.1-0.1-2.7c0-0.2,0-0.4,0-0.6
			c0-0.5,0-1,0-1.5c0-0.1,0-0.1,0-0.2c0-0.6,0-1.2,0-1.8v-0.1v-0.1c0,0,0,0,0,0c0,0,0,0,0,0v-0.4c0,0,0-0.1,0-0.1
			c0-1.3-0.1-2.3-0.1-3.3c0-0.3-0.3-0.6-0.6-0.6H26.9c-0.1,0-0.3,0.1-0.4,0.2c-0.1,0.2-0.2,0.3-0.2,0.5c0.6,25.7,1,35.5,1.2,38.5
			c0,0.3,0.3,0.6,0.6,0.6c2.2,0,4.7,0.2,7.1,0.4h0.3c2.5,0.1,5,0.3,7,0.3h0.9c1,0.1,6.5,0.3,12.2,0.3c4.9,0,10-0.1,15.9-0.5
			c0.1,0,0.1,0,0.2,0c0.6,0,1.1,0,1.6-0.1c0.4,0,0.9-0.1,1.3-0.1c0.2,0,0.4-0.3,0.4-0.5c0-0.1,0-0.1,0-0.2c0-0.6,0-1.3,0-1.9
			c0-0.1,0-0.1,0-0.2v-0.1c-0.1-1.7-0.1-3.4-0.2-5.1c-0.1-1-0.1-1.7-0.2-2.4c0,0,0,0,0,0v-0.5c0-0.3-0.1-0.5-0.1-0.8
			c0-0.4,0-0.8-0.1-1.3c0,0,0,0,0-0.1c0.5,0,0.9,0.1,1.4,0.1c0.7,0,1.4,0.1,2.1,0.1h0.3c0.8-0.1,2.1-0.2,3.1-0.3
			c0.7-0.1,1.4-0.2,1.6-0.2h0.2c0.2,0,0.3,0,0.4-0.1c0.1-0.1,0.1-0.3,0.1-0.4c0,0,0,0,0,0C83.6,44.3,83.6,44.2,83.6,44.2z
			 M42.4,57.2c-1.9,0-4.2-0.1-6.7-0.3h-0.2c-2.2-0.2-4.6-0.3-6.8-0.4c-0.2-3.3-0.5-13.2-1.1-37.2H73l-0.1,10.4c0,1,0,2,0,3
			c0,0.7,0,1.4,0,2.1c0,0.6,0,1.2,0,1.8c0,1.3,0,2.3,0,3.3c0,2,0.1,3.4,0.1,4.5c0.1,1.4,0.1,2.3,0.2,3.2v0.2
			c0.1,0.7,0.1,1.4,0.2,2.4c0.1,1.7,0.2,3.5,0.2,5.2v1.5C73.4,57,73.1,57,72.9,57c-0.5,0-1,0.1-1.5,0.1c-5.8,0.3-11,0.4-15.9,0.4
			c-4.5,0-9.1-0.1-12.2-0.2h-0.1L42.4,57.2z M75.1,37.4c-0.3,0.3-0.5,0.5-0.8,0.8c0-0.3,0-0.5,0-0.8H75.1z M77.3,36
			c-0.2,0-0.4,0-0.6,0c-0.8,0-1.6,0-2.3,0c0-0.3,0-0.7,0-1c0-0.5,0-1,0-1.5c1.2-0.1,2.4-0.1,3.5-0.1h0.4c1,0,2.1-0.1,3.1-0.1
			c0.1,0.8,0.1,1.6,0.2,2.6C80.3,36,79,36,77.3,36z M77.6,29.1c-1.1,0-2.2,0.1-3.3,0.1c0-0.8,0-1.6,0-2.4H75c1.6,0,3.2,0,4.6-0.1
			c0.5,0,1,0,1.4,0v0.2c0,0.5,0.1,1.2,0.1,2L77.6,29.1z M78.4,32c-1.4,0-2.7,0-4,0.1v-1.7c0.7,0,1.3-0.1,2-0.1l2.7-0.1
			c0.7,0,1.4-0.1,2.1-0.1c0,0.6,0.1,1.2,0.1,1.8C80.3,32,79.3,32,78.4,32z M81,24v1.4h-1.4c-1.5,0.1-3.4,0.1-5.3,0.1V23
			c1.9,0.1,3.8,0.2,5.7,0.2c0.4,0,0.7,0,1,0C81,23.4,81,23.7,81,24z M81,21.9h-1c-1.9,0.1-3.9,0-5.7-0.2c0-0.8,0-1.6,0-2.4H81
			C81,20,81,20.8,81,21.9z M74.3,40.1c0.9-0.9,1.8-1.8,2.6-2.7h0.3c1.8,0,3.2-0.1,4.4-0.2c0.1,0.8,0.1,1.7,0.2,2.5
			c-1.6,1.4-2.9,2.9-4.2,4.4C77,44,76.4,44,75.8,44h-0.4c-0.4-0.1-0.7-0.1-1.1-0.1C74.3,42.8,74.3,41.5,74.3,40.1z M82,41.3
			c0.1,0.9,0.1,1.7,0.2,2.4c-0.3,0-0.7,0-1.2,0.1c-0.4,0.1-1,0.1-1.6,0.2C80.3,43,81.1,42.1,82,41.3z M26.6,18.8L26.6,18.8
			c0.6,25.5,1,35.4,1.1,38.5c0,0,0,0.1,0,0.1c0,0,0-0.1,0-0.1C27.6,54.3,27.2,44.5,26.6,18.8z M27.8,57.5
			C27.8,57.5,27.8,57.5,27.8,57.5C27.8,57.5,27.8,57.5,27.8,57.5z M55.2,58.7c0.1,0,0.2,0,0.3,0c0,0,0,0,0,0
			C55.4,58.7,55.3,58.7,55.2,58.7z M54.4,58.7c0.1,0,0.1,0,0.2,0C54.5,58.7,54.4,58.7,54.4,58.7z"/>
		<g id="Groupe_1409" transform="translate(83.358 5.076)">
			<g id="Groupe_1408">
				<path id="Tracé_1991" class="st4" d="M2.1,4.1C1,4.1,0.2,3.3,0.2,2.2l0,0c0-1,0.8-1.9,1.9-2h0.1h0.2C3.3,0.3,4,1.1,4,2
					C4,3.1,3.2,4,2.1,4.1z M2.3,1.1L2.3,1.1H2.1c-0.6,0-1,0.5-1,1.1c0,0.5,0.5,1,1,1l0,0c0.6-0.1,1-0.6,0.9-1.1
					C3,1.6,2.7,1.2,2.3,1.1z"/>
				<path id="Tracé_1992" class="st4" d="M2.1,4.3C1,4.3,0,3.4,0,2.2l0,0C0,1,0.9,0.1,2,0h0.1c0.1,0,0.1,0,0.2,0
					c1.1,0.1,1.9,1,1.9,2C4.2,3.2,3.3,4.2,2.1,4.3z M2.3,0.4L2.3,0.4H2.1c-1,0.1-1.7,0.8-1.7,1.8s0.8,1.7,1.7,1.7l0,0
					C3.1,3.8,3.8,3,3.8,2C3.8,1.2,3.1,0.5,2.3,0.4L2.3,0.4z M2.1,3.3c-0.7,0-1.2-0.5-1.2-1.1l0,0C0.9,1.5,1.5,1,2.1,1h0.1h0.1
					c0.5,0,0.9,0.5,1,1C3.3,2.7,2.8,3.3,2.1,3.3L2.1,3.3z M2.3,1.3L2.3,1.3L2.3,1.3L2.3,1.3c-0.6,0-0.9,0.4-1,0.9
					C1.3,2.6,1.7,3,2.1,3c0.5-0.1,0.8-0.5,0.8-1C2.9,1.7,2.6,1.4,2.3,1.3L2.3,1.3z M2.1,0.9V0.5l0,0V0.9z"/>
			</g>
		</g>
		<path id="Tracé_2006" class="st3" d="M43.4,87.9c1.8,0.4,3.7,0.6,5.6,0.7c1.9,0.2,3.8,0.3,5.7,0.2c1.4-0.1,2.8-0.7,3.9-1.7
			c0.6-0.6,1.1-1.3,1.7-1.9c0.6-0.5,1.1-0.8,1.5-1.5c0.2-0.4,0.1-1-0.4-1.2c-0.1-0.1-0.3-0.1-0.4-0.1c-1.3-0.1-2,1-2.7,1.9
			c-1.3,1.6-2.4,2.5-4.5,2.7c-3.6,0.3-7.3-0.4-10.8,0.4C42.9,87.3,42.7,87.8,43.4,87.9z"/>
		<g id="Groupe_1420" transform="translate(45.914 72.929)">
			<path id="Tracé_2008" class="st3" d="M58.4,26.4h9.2c0-0.2,0-0.4,0-0.6c0.1-0.9-0.1-1.7-0.7-2.4c0.3,0,0.6,0,0.8,0
				c2.5,0,3.3-4.1,0.6-4.5c-2.2-0.4-4.3-0.9-6.4-1.6c-2.3-0.8-5-1.9-5.4-4.5c0-0.1-0.1-0.2-0.3-0.2c0.1-1.3,0.1-2.6-0.1-3.9L56,8.6
				l0,0c-1.5,1.3-2.4,3.8-2.8,5.7c-0.4,2.3,0,4.7,1.1,6.8C55.3,23.2,56.6,25,58.4,26.4z"/>
			<path id="Tracé_2009" class="st3" d="M20.6,26.4c2.1-0.9,4.1-2.1,5.9-3.5c2.9-2.4,5.5-5.3,7.6-8.5c-0.2,1-0.3,2-0.4,2.9
				c-0.5,2.8-0.7,5.6-0.6,8.5c0,0.2,0.1,0.4,0.2,0.7h4.8c-0.5-1.3-0.7-2.6-0.6-4c0-4,0.5-8.6-0.7-12.5c0.5-0.9,0.9-1.8,1.4-2.6
				c1.2-2.1,2.6-4.1,4.3-5.9c0.3-0.4,0.3-0.9,0-1.3c-0.3-0.3-0.9-0.3-1.2,0C39.6,1.6,38,3,36.5,4.5s-3.2,2.7-4.7,4.3
				c-2.7,2.9-5.2,6.1-8.1,8.8s-6.4,4.6-10.2,5.6C9.8,24.3,6,24.9,2.3,25.9C1.5,26,0.7,26.2,0,26.4H20.6z"/>
		</g>
		<path id="Tracé_2010" class="st3" d="M18.8,99.4c0.2-1.5-0.2-3.7-1-3.3c-2.1,0.9-4.3,1.6-6.6,2.1c-2.6,0.3-10-0.4-10.4-0.3
			c-0.5,0.4-0.8,1-0.8,1.6L18.8,99.4z"/>
		<path id="Tracé_2011" class="st3" d="M115.8,50.9c1.4,0.3,2.9,0.8,4.3,1c1.5,0.1,3,0.3,4.4,0.7s2.8,1,4.2,1.6
			c1.2,0.6,2.1,1.6,2.5,2.9c0.7,1.9,1.3,3.9,1.8,6c0.5,2,1.2,4.6,0.5,6.6c-0.4,0.9-0.9,1.8-1.5,2.5c-0.1,0.2-0.6,0.8-0.9,1.2
			c-0.1,0.1-0.2,0.1-0.3,0.2c-0.7,0.3-1.9-0.2-2.6-0.3c-1.5-0.2-3-0.1-4.4,0.4c-0.2,0.1-0.2,0.3-0.1,0.4c-1,0.1-2,0.4-1,0.9
			c1.7,0.9,5.1,1.9,4.9,5.9c-0.6,1.6-1.1,3.3-1.7,4.9c0,0,0,0,0,0.1l-0.3,0.7c-0.5-0.2-1.1-0.1-1.5,0.3c-0.4,0.3-0.6,0.8-0.5,1.3
			c0,0.1,0,0.2,0,0.2c-0.2,0.9-0.5,1.8-0.9,2.7c-0.3,0-0.6,0.1-0.8,0.3c-0.2,0.2-0.5,0.4-0.7,0.6c-0.1,0.1-0.2,0.1-0.2,0.2
			c-0.1,0-0.2-0.1-0.2-0.1c-0.1-0.1-0.2-0.2-0.3-0.3c-0.1-0.2-0.3-0.2-0.5-0.2c-1.1,0.4-1,1.8-0.3,2.5c0.5,0.5,1.2,0.7,1.8,0.7
			l-0.1,0.4c-0.4,1.4-0.8,2.8-1.3,4.2h3.7v-0.2l14.6,0.2l1.1-3.2c2-1.7,3.5-3.9,4.4-6.4c1.7-4.1-2.2-7.9-2.7-8.3
			c0.1-0.6,0.2-1.6,0.3-3.6c0.3-4.5,0.3-8.9,0-13.4c-0.5-2.1-1.3-4-2.4-5.9c-1-1.5-2.3-2.8-3.7-3.8c-2.8-1.9-5.8-3.4-8.9-4.6
			c-0.3-0.1-0.5-0.2-0.8-0.3c0.1-0.8-0.3-1.5-1-2c-2.1-1.4-4.4-2.3-6.9-2.8c0-1.1,0.3-2.1,0.8-3.1c1-1.4,2.8-2.3,3.9-3.6
			c2.3-2.9,3.8-6.3,4.3-9.9c0.7-5.1-1.9-14.5-8.5-13.9c0,0-0.1,0-0.1,0.1c0,0,0,0.1,0.1,0.1c2,0.5,3.7,2,4.4,4
			c-0.2,0.1-0.3,0.3-0.4,0.5c-0.7,2.3-0.5,4.9-0.9,7.3c-0.3,2.2-1.1,4.3-2.3,6.2c-1.2,1.8-2.9,3.2-4.9,4c-0.9,0.3-1.9,0.5-2.9,0.6
			c-0.9-0.1-1.8-0.1-2.7,0c-0.1,0-0.2,0.1-0.1,0.2c0.5,1.6,2.6,2.2,4.4,2.4c-0.1,0-0.3,0-0.4,0c-1.3,0-2.5-0.4-3.6-1.1
			c-0.2-0.1-0.4,0.1-0.3,0.3c0.8,1.3,2,2.4,3.4,3c0.4,0.2,0.8,0.4,1.3,0.4h0.1c0,0.2,0,0.3,0,0.5c-0.1,1-0.1,2,0,2.9
			c0,0.5,0.2,1,0.6,1.4c-2.2,0.2-4.5,0.7-6.6,1.4c-0.2,0.1-0.2,0.4,0,0.4C110.2,49.6,113,50.3,115.8,50.9z"/>
		<path id="Tracé_2013" class="st4" d="M133.7,99.4L133.7,99.4l0.9-4.4c0-0.2,0-0.4-0.1-0.5s-0.2-0.2-0.4-0.3H134
			c-0.3,0-0.6,0.2-0.6,0.5l-0.9,4.4c0,0.1,0,0.2,0.1,0.3H133.7z"/>
		<path class="st4" d="M137.5,81.2c0.2-1.7,0.8-7.6,1-9.9c0-0.1,0-0.1-0.1-0.2c0.1-1.3,0.1-2.5,0.1-3.8c0-13.4-5.9-15-18.1-16.8
			c0-1.3-0.3-2.5-2.9-3.2c-0.5-2.1-0.8-4.5-0.8-6.7c0-0.3,0-0.6,0-0.9c6-2.5,9.2-10.5,9.2-15.4c0-10.3-5.1-11-11.5-11.8
			c-3.3-0.2-6.6-1-9.7-2.3c-0.2-0.1-0.5-0.1-0.7,0.1c-2,1.7-4.7,4-4.7,9l0.1,1.2c0,0.4,0.2,0.7,0.3,1.1c-0.6,1.3-0.9,2.6-1.1,3.9
			l-3.9,0h-0.1c-0.4,0.1-0.6,0.5-0.5,0.8c0,0.1,0,0.2,0,0.3c0.1,1,0.4,3.6,4.3,4.1c0.6,5.9,4.3,8.6,8,8.8c0.1,0.9,0.2,1.8,0.2,2.8
			c0,1.6-0.2,3.1-0.4,4.6c-1.8,0.3-3.4,1-4.9,2.1c-0.5,0-1,0-1.5,0c-3.5,0-7.4,0-12.1,2.9l-0.9-31c0.2,0,0.4,0,0.7,0
			c1.6,0,3.1-0.2,4.7-0.4c0.4,0,0.6-0.3,0.6-0.6c0-0.9,0-1.7,0-2.6V16c0-1,0-1.9,0-2.9c0-3.6,0-7.9-0.3-12.2c0-0.3-0.3-0.6-0.6-0.6
			C79.6,0.2,65,0,65,0c-0.2,0-0.4,0.1-0.5,0.1c-0.1,0.1-0.2,0.3-0.2,0.5c0.1,1.8,0.2,3.6,0.2,5.4v0.7c0.1,1.7,0.1,3.4,0.2,5.2
			c-17.3-0.1-41.5-0.1-41.5-0.1c-1.1,0-2.1,0.4-2.9,1.2S19,14.8,19,15.9c0.1,18.9,0.2,29.5,0.6,45c0.1,2.4,2,4.3,4.4,4.3
			c7.9,0.1,14.6,0.2,21,0.2c-0.2,1.1-0.3,2.1-0.4,3.2c-0.4,4.9-1.2,9.6-2.3,14.4L38.6,83c-0.3,0-0.6,0.3-0.6,0.6
			c0,0.4,0.3,0.7,0.6,0.7l22.3-0.7c-1,1.3-2,2.6-2.8,3.7c-1.7-0.1-3.4-0.1-5.2-0.1c-3.2,0-6.2,0.1-9.1,0.2h-0.1
			c-2.5,0.1-5.1,0.2-7.5,0.1c-0.9,0-1.7-0.1-2.6-0.3c-2-0.3-3.7-0.5-4.7,0.5c-0.3,0.3-0.5,0.7-0.7,1c-0.7,0-1.8-0.1-2.8-0.3
			c-1.6-0.2-3.2-0.5-4.8-1c-0.4-0.1-0.7-0.2-1.1-0.3c-4.6-1.1-9.1,0.7-10.8,1.5c-3.3,1.6-7.6,5.1-6.7,7.4C2,96.2,2,96.4,2.1,96.5
			c-0.2,0.5-0.2,1-0.1,1.4c0.2,0.5,0.6,0.9,1.2,0.9c1.4,0,2.7,0.2,3.9,0.3c1.3,0.2,2.6,0.3,4,0.3c1.7,0,3.5-0.3,5.3-0.7
			c0.8-0.3,1.4-1,1.7-1.8c0.2-0.6,0.4-1.1,0.4-1.8c0,0,0,0,0.1,0c2.9-0.5,5.9-0.3,8.6,0.7c0.3,1,0.8,1.9,1.5,2.6
			c0.5,0.5,1.2,0.8,4,1h21.4c12.9-0.6,15.5-3.7,24.4-14.2c1.6-1.9,3.1-3.6,4.7-5.5c-1.1,6.5-1.9,13.1-2.4,19.8h1.3
			c0.5-7.3,1.4-14.5,2.7-21.7c1.3-1.5,2.6-3,4-4.5C89,73.1,89,73,89,72.8s-0.1-0.3-0.2-0.4c-0.3-0.2-0.7-0.2-0.9,0
			c-1.4,1.6-2.8,3.1-4.1,4.6c-2.3,2.7-4.3,5-6.2,7.3C67.7,96.1,65.9,98.2,49,98.2c-0.3,0-0.6,0-1,0c-0.4,0-0.7,0-1,0
			c-0.4,0-0.7,0-1.1,0c-0.6,0-1.2,0-1.7,0h-0.9c-0.4,0-0.8,0-1.1,0h-1.1c-2.3,0-4.6,0.1-7.4-0.1c-3.2-0.2-3.7-0.4-4-0.6
			c-1.3-1.2-1.7-3.4-1.1-6.3c0.2-0.9,0.6-1.7,1.2-2.4c0.6-0.6,2-0.4,3.7-0.1c0.8,0.1,1.7,0.2,2.6,0.3c0.3,0,3.5,0.1,7.6-0.1h0.1
			c2.5-0.1,5.7-0.2,9-0.2c1.8,0,3.7,0,5.5,0.1c0.2,0,0.4-0.1,0.5-0.3c1.1-1.5,2.3-3.1,3.8-5.1l1.8-2.3l0.3-0.5c3-3.9,6.1-8,9.2-12.4
			c0.8-1.1,1.6-2.2,2.3-3.1c4.1-5.5,7.8-9.3,11.3-11.6c4.5-3.1,8-3.3,12.4-3.3c0.6,0,1.1,0,1.7,0c0.1,0,0.3,0,0.4-0.1
			c1.4-1.1,3.1-1.8,4.8-2c0.9-0.1,1.8-0.2,2.6-0.2c2.4-0.1,4.9,0.1,7.3,0.5c2.5,0.5,2.5,1.1,2.5,2.5v0.2c0,0.3,0.2,0.6,0.6,0.6
			c13.1,1.9,17.6,3.2,17.6,15.6c0,1.7-0.1,3.5-0.3,5.2v0.1c-0.2,2.2-0.5,5.4-0.7,7.3c-1.4-1.4-3-2.4-4.1-3.1l-0.1-0.1
			c-0.2-0.2-0.5-0.3-0.7-0.4c-0.1,0-0.1,0-0.2,0c-3.4-1.7-7.2-2.6-11-2.6c-7.8,0-12.5,2.1-15.2,3.8c-3.1,2.1-5,4.8-5,7.4
			c0,6,4,10.7,10.7,12.5v0.1h0.1c0.7,0.2,1.4,0.3,2.1,0.5v0.1c-0.1,0.4-0.2,0.8-0.3,1.2v0.1h1.1l0.1-0.5c0.1-0.3,0.1-0.5,0.2-0.7
			c2.2,0.4,4.5,0.6,6.7,0.6c1,0,1.9-0.1,2.8-0.1v0.1l-0.2,0.7h1.4l0.1-0.3c0-0.2,0.1-0.4,0.2-0.7c7.8-1,12.9-4.8,14.5-8.5
			C141.1,86.7,139.7,83.6,137.5,81.2z M16.9,96.3c-0.2,0.5-0.5,1-1,1.2c-3.4,1.1-5.7,0.8-8.8,0.5C6,97.9,4.7,97.7,3,97.6
			c0,0-0.1-0.1,0-0.4c0.8,0.4,2.1,0.6,3.7,0.6c1.4,0,2.8-0.1,4.2-0.3c1.5-0.2,3-0.6,4.4-1.3h0.1c0.6-0.3,1.2-0.5,1.8-0.7
			C17.1,95.8,17,96.1,16.9,96.3z M27.2,90.8c-0.3,1.3-0.4,2.5-0.3,3.5c-2.8-0.7-5.7-0.8-8.6-0.4c-1.2,0.2-2.3,0.6-3.4,1.1h-0.1
			c-1.3,0.6-2.7,1-4.1,1.2c-4.8,0.6-7.3,0.2-7.6-0.6c-0.4-1,2.6-4,6.1-5.7c1.6-0.7,5.7-2.4,9.9-1.3c0.3,0.1,0.6,0.2,1,0.3
			c1.6,0.5,3.3,0.8,5,1c0.7,0.1,1.6,0.2,2.3,0.2C27.3,90.3,27.2,90.6,27.2,90.8z M45.9,68.6c0.1-1.1,0.2-2.2,0.3-3.3
			c2.6,0,5.2,0,7.7,0c0.5,7.8,1.4,13.6,2.6,17.1l-12.8,0.4c1-4.6,1.8-9.4,2.2-14.1V68.6z M73.3,8.7c0.5,1,1,2,1.5,2.9l0.2,0.3
			c-1.3,0-2.8,0-4.5,0C71.5,10.7,72.4,9.6,73.3,8.7z M78,11.2c0.2-0.2,0.3-0.3,0.4-0.5c0.3,0.4,0.5,0.9,0.8,1.3c-0.6,0-1.2,0-1.9,0
			C77.5,11.7,77.7,11.4,78,11.2z M86.6,16.7c-0.1-2.6-2.3-4.7-4.9-4.7c-0.1,0-0.5,0-1,0c-0.4-0.6-0.7-1.3-1.2-2l-0.4-0.7
			C79.1,9.1,78.9,9,78.7,9h-0.1c-0.2,0-0.3,0.1-0.5,0.2c-0.4,0.4-0.7,0.8-1.1,1.1l-1,1c-0.7-1.4-1.3-2.7-2-4C73.9,7.2,73.7,7,73.5,7
			c-0.2,0-0.4,0-0.6,0.2c-1.3,1.4-2.6,2.8-4.2,4.7c-0.9,0-1.8,0-2.8,0c-0.1-1.7-0.2-3.5-0.2-5.2V6.6c-0.1-1.8-0.1-3.5-0.2-5.3
			l25.6,0.3c0.3,4.1,0.3,8.2,0.3,11.6c0,1.4,0,2.9,0,4.3v2c-1.3,0.2-2.7,0.3-4,0.3c-0.2,0-0.4,0-0.5,0c-0.1,0-0.1,0-0.2,0h0
			L86.6,16.7z M72.8,67.7c-3.2,4.6-6.6,9-9.5,12.8l-1.4,1.8l-4,0.1c0,0,0-0.1,0-0.1c-1.2-3.5-2-9.2-2.6-17h2c5.2,0,10.7,0,17.3-0.1
			C74,66,73.4,66.8,72.8,67.7z M75.5,64c-8.1,0.1-14.8,0.1-20.9,0.1c0,0,0,0-0.1,0c0,0,0,0,0,0c-2.8,0-5.6,0-8.6,0c0,0,0,0-0.1,0
			h-0.1c0,0-0.1,0-0.1,0c-6-0.1-12.8-0.1-21.7-0.2c-1.7,0-3.1-1.3-3.1-3c-0.3-15.5-0.4-26.2-0.5-45c0-1.6,1.3-2.8,2.8-2.8l58.6,0.2
			c1.9,0,3.5,1.6,3.6,3.5l1.1,36C83,55.1,79.4,58.8,75.5,64z M115.9,38.8C115.8,38.8,115.8,38.8,115.9,38.8c-0.1,0-0.2,0.1-0.3,0.1
			c0,0,0,0,0,0c-0.8,0.2-1.6,0.4-2.4,0.4c-5.6,0-7.5-5.5-7.5-8.1c1.7-1.5,2.5-2.9,2.5-4.2c0-1.1-0.7-2.6-1.9-2.6
			c-1.1,0.1-2.1,0.4-3,1.1c-0.3-1-0.7-2-1.4-2.9c-0.4-0.5-0.7-1-0.9-1.5c-0.1-0.3-0.1-0.5-0.2-0.8l-0.1-0.9c0-4,1.8-6,3.9-7.9
			c3.1,1.3,6.4,2,9.7,2.3c6.3,0.8,10.4,1.3,10.4,10.6C124.7,29.1,121.6,36.9,115.9,38.8z M98.5,29.2c0,0.1,0,0.1,0,0.2
			c-2.5-0.3-2.8-1.7-2.9-2.5l3,0C98.5,27.7,98.5,28.4,98.5,29.2z M100.3,22.7c0.1,0.2,0.3,0.5,0.5,0.7c0.5,0.7,0.9,1.5,1.1,2.3
			l-2.2,0C99.8,24.6,100,23.6,100.3,22.7z M109.4,46.7c-0.7,0-1.4,0.1-2.1,0.1c0.2-1.5,0.4-2.9,0.4-4.4c0-1.2-0.1-2.3-0.3-3.4
			c-0.1-0.2-0.3-0.4-0.5-0.4c-3.3,0-6.9-2.6-7.5-8.1c0.1-0.1,0.2-0.2,0.3-0.4c0-0.3-0.1-0.5-0.3-0.6c0-0.1,0-0.2,0-0.3
			c0-0.8,0.1-1.6,0.1-2.3l2.5,0c0,0.3,0.2,0.4,0.4,0.5c0.2,0,0.5,0,0.7-0.2c0.8-1,1.9-1.5,3.1-1.6c0.2,0,0.6,0.7,0.6,1.3
			c0,1-0.8,2.1-2.3,3.4c-0.1,0.1-0.2,0.3-0.2,0.5v0.2c0,2.9,2.2,9.4,8.8,9.4c0.7,0,1.5-0.1,2.2-0.2c0,0.1,0,0.2,0,0.4
			c0,2.2,0.3,4.4,0.7,6.5C113.8,46.8,111.6,46.7,109.4,46.7z M124.2,96.7L124.2,96.7c0,0.3-0.1,0.4-0.1,0.6
			c-2.9,0.3-6.1,0.2-9.6-0.4c2.4-8,3.9-10.8,7.5-10.8c1.9,0,3.1,0.7,3.6,2.2C126.3,90.5,125,94.4,124.2,96.7z M138.5,89.5
			c-1.3,3.1-6,6.5-13,7.6c1-2.9,2-6.2,1.5-8.6l0.1-0.1v-0.1c0,0,0-0.1-0.1-0.1v-0.1c0-0.1,0-0.1,0-0.2c0-0.1,0-0.2,0-0.3
			c0-0.1-0.1-0.1-0.2-0.2c-0.2-0.4-0.5-0.6-0.8-0.9c0-0.1-0.1-0.1-0.2-0.2c-0.6-0.6-1.3-1-2.1-1.2c-0.5-0.2-1-0.3-1.5-0.4
			c-4.4,0-6.3,3.5-8.8,12c-0.6-0.1-1.3-0.2-1.9-0.4c-4.9-1.2-10.1-4.8-10.1-11.3c0-4,6-9.9,18.9-9.9c3.8-0.1,7.6,0.9,11,2.7
			c1.3,0.8,3.3,2.1,4.9,3.8v0.1l0.1,0C138.3,83.9,139.7,86.6,138.5,89.5z"/>
	</g>
	<path id="Tracé_2015" class="st5" d="M631.9,613.9l-61.3,118.3h23.2l49.4-96.4L631.9,613.9z"/>
	<path id="Tracé_2016" class="st2" d="M587.5,528.8L456,732.2h114.5l61.3-118.3L587.5,528.8z"/>
	<path id="Tracé_2017" class="st0" d="M830.6,732.2L698.5,528.8L593.4,732.2H830.6z"/>
	<g id="Groupe_1441" transform="translate(356.951 600.6)">
		<path id="Tracé_2018" class="st2" d="M1.5,131.6h25.2c0-2.1,0.2-4.1,0.6-6.2c-0.1-2.3-0.2-4.6-0.2-6.9c0.1-7.5,0.5-15,1.4-22.4
			c-0.1-0.4-0.1-0.8-0.2-1.2C20.5,94.2,8,92.1,0.8,87.3c0.2,3.5,1,6.7,3.5,9.3C4.3,98.7,2.6,119.7,1.5,131.6z"/>
		<path id="Tracé_2019" class="st6" d="M113.7,131.6c0.5-14.1,9.6-24,9.6-36.3c-0.1-3.3-0.6-6.5-1.5-9.6c-2.7,3.5-5.7,6.6-9.2,9.4
			l-0.9,0.3c-0.7-0.9-1.2-1.9-1.6-2.9l0.3-0.1c1.1-2,2.3-4.4,3.6-6.8c-1.6,0.2-3.3,0.2-4.9,0.2c-7.6,0-15.2-1.5-22.3-4.3
			c-0.5,2.5-0.8,5.3-0.8,8c0,5.3,7,30.9,10.1,42.1H113.7z"/>
		<path id="Tracé_2020" class="st1" d="M120.4,22c-2.3,2-5,3.4-8,4c-1-0.2-2.1-0.3-3.3-0.4c-0.1-2.6-0.2-5.2-0.2-7.8
			c0.2,0,0.4,0,0.6,0c2.4,0,4.2-2.2,5-4.3c-3.8-1.1-6.4-4.5-6.4-8.4l0,0c-1.1,0.2-2.2,0.9-2.8,1.8c-1.1,1.6-1.7,3.5-1.8,5.5
			c-0.1,1.9,0.8,3.7,2.4,4.7c-0.5,2.8-1.1,5.6-1.7,8.4c-1.1,0-2.1,0.1-3.2,0.2c-0.3,0-0.6,0.1-0.9,0.1c-4-1.1-7.4-3.8-9.3-7.5
			c8-4.5,12.2-12.9,14.3-15.2l0,0c0.1,0,2.4-2.2,5.1-2.2C119.4,0.7,115.4,13.2,120.4,22z"/>
		<path id="Tracé_2021" class="st0" d="M90.1,54.3C88,53.7,85.9,53,84,52.1c2.1-6.3,5.8-13.2,6.9-16.5c1.6-4.9,2.5-8.9,9.4-9.9
			c0.3,0,0.6-0.1,0.9-0.1c0.1,5.5,0.1,13.3,2.8,13.3c3.2,0,7-8.8,8.6-12.9c12.9,2.3,14.2,10.3,18.5,32.1c-2.6,1.4-5.2,2.6-8,3.6
			c-0.7-1.4-1.4-3.1-2.1-5.1c-1.2,4.2-2.4,8.8-2.4,13.4c0,2,0.3,4,0.7,6c-1.8,3-3.5,6.3-5.2,9.4c-1.6,0.2-3.3,0.2-4.9,0.2
			c-7.6,0-15.2-1.5-22.3-4.3c0.3-1.2,0.6-2.3,0.9-3.3c1.3-4.1,2.7-7.5,2.7-13.4c0-3.2-0.4-6.4-0.4-9.7
			C90.1,54.7,90.1,54.5,90.1,54.3z"/>
		<path id="Tracé_2024" class="st1" d="M36.1,0.7c2.8,0,5.6,0.6,8.2,1.8C42.6,3,41,3.7,39.5,4.7c-5.8,3.8-4.9,9.3-9.3,9.3
			c-0.2,0-0.4,0-0.6,0c-0.4,0-0.8-0.1-1.1-0.1c-0.8-1.7-1.3-3.6-1.3-5.5C27.1,2.5,30.7,0.7,36.1,0.7z"/>
		<path id="Tracé_2025" class="st3" d="M45.4,5.2c0.7-1.2,0.2-2.8-1-3.4C44,1.6,43.5,1.5,43,1.5c-2.6,0.1-5.5,2.7-7.4,4.4
			c-1.2,1.1-2.3,2.4-3.3,3.7c-1,1-1.9,2.1-2.7,3.3c-0.1,0.2,0,0.4,0.1,0.5c1.9,0.8,3.6-0.8,5-2c1.2-1,2.3-2,3.5-3
			c0.2-0.1,0.3-0.2,0.5-0.4c0,0.2,0.1,0.3,0.2,0.5c1.7,3.3,2.5,11.9-3.8,8.9c-0.4-0.2-1-0.1-1.2,0.4c-0.1,0.3-0.1,0.6,0,0.9
			c0.4,0.7,0.9,1.3,1.5,1.7c-0.4,0-0.9-0.1-1.3,0c-0.2-0.2-0.5-0.3-0.7-0.2c-0.1,0.1-0.2,0.2-0.2,0.3c-0.7,2.3-1,4.7-0.8,7.1
			c-0.2-0.2-0.5-0.4-0.7-0.7c-0.1-0.1-0.3-0.1-0.4,0C31,27,30.9,27.1,31,27.2c0.2,0.8,0.4,1.6,0.6,2.4c-0.8,0.4-1.1,1.4-0.8,2.2
			c0.2,0.8,0.5,1.7,0.7,2.5c0.7,3.2,1.2,6.5,1.5,9.8c0.2,2.4,1.2,4.8-1.1,6.5c-1.2,0.7-2.4,1.5-3.5,2.4c-0.1,0.1-0.1,0.3,0,0.4
			c0.1,0.1,0.1,0.1,0.2,0.1c2.3,0.3,4.5-0.4,6.3-1.9c0.3,1.3,0.7,2.6,1.4,3.7c1.1,2,4.1,0.3,3.3-1.6v-0.1c0.1,0.1,0.2,0.1,0.2,0.2
			c0.3,0.2,0.8,0.1,1.1-0.1c1.5-1.5,0.7-3.9,0.4-5.8c-0.4-2.7-1-5.4-1.9-7.9c-0.5-1.3-1-2.7-1.6-4c-0.3-1.6-0.8-3.1-1.5-4.5
			c-1-1.7-1.6-3.7-1.7-5.6c0-0.9,0-1.7-0.1-2.6c2.5,1.6,7.6-0.2,9.2-2.3c1.8-2.3,2-5.3,1.7-8.1c-0.1-1.4-0.3-2.7-0.7-4
			c-0.2-0.7-0.4-1.4-0.8-2.1c0-0.1-0.1-0.1-0.1-0.2C44.5,6.3,45.1,5.9,45.4,5.2z"/>
		<path id="Tracé_2026" class="st3" d="M111.9,85.4L111.9,85.4c2.5-1,3.6-3.7,4.6-6c0.8-1.5,1.5-3,2.3-4.4c1.3-2.1,2.5-4.2,3.4-6.4
			v-0.1c1.3,0.3,2.5-0.5,2.8-1.8c0.1-0.6,0-1.2-0.3-1.7c-0.9-1.6-1.4-3.5-3-4.5c-0.1-0.1-0.3-0.2-0.5-0.2c-0.1-1.7-0.3-3.3-0.7-4.9
			c-0.5-2.2-1.2-4.3-2-6.4c-0.7-1.6-1.7-3.3-1.7-5.1c0-0.3-0.2-0.5-0.5-0.5c-0.2,0-0.3,0.1-0.4,0.2c-1.3,2.1-1,5.2-0.9,7.7
			c0,1,0.1,2,0.1,2.9c-0.5,0.3-1,0.7-1.5,1.1c-2.6,2.1-5.2,0.6-8.2,1c-0.9,0-1.6,0.8-1.6,1.7c0,0.1,0,0.3,0.1,0.4
			c0.5,1.5,1.4,2.8,2.7,3.7c0.4,0.6,1,0.9,1.7,0.9c0.9,0.4,1.8,0.6,2.7,0.7c-0.2,0.9-0.5,1.8-0.6,2.5c-0.3,1.4-0.7,2.9-1.1,4.3
			c-0.9,2.9-2.1,5.7-3.6,8.4c-0.2,0.4-0.4,0.9-0.3,1.4c-1.6,0-3.2-0.2-4.5-0.3c-3.4-0.4-6.8-0.4-10.2,0c-0.5,0.2-0.8,0.7-0.6,1.2
			c0.1,0.2,0.2,0.4,0.4,0.5c3.5,1.7,7.6,2.3,11.4,2.7c2.5,0.4,5.1,0.4,7.6-0.1c0.1,0.3,0.3,0.6,0.5,0.8c-0.1,0-0.2,0-0.3,0
			c-5.4,1.2-11.9-0.2-17.3-0.7c-0.3,0-0.5,0.3-0.5,0.6c0,0.2,0.1,0.3,0.3,0.4c5.4,2.8,12.2,5.3,18.4,5.2
			C113.9,90.6,114.1,86.6,111.9,85.4z"/>
		<path id="Tracé_2047" class="st4" d="M27.5,131.6c0.1-5.2,0.2-11.6,0.2-13c0.1-7.5,0.5-14.9,1.4-22.4c0-0.4-0.2-0.7-0.6-0.7
			s-0.7,0.2-0.7,0.6l0,0c-0.8,7.5-1.3,15-1.4,22.5c0,1.5-0.1,7.8-0.2,13H27.5z"/>
		<g>
			<path class="st4" d="M133.6,67.2c-0.6-3.1-1.2-5.9-1.7-8.6l-0.4-1.8c-3.9-19.7-5.6-27.9-16.4-30.8c2-0.7,3.9-1.9,5.6-3.3
				c0.2-0.3,0.3-0.6,0.1-0.9c-1.8-3.3-2.4-7.3-2.9-10.8C117,5.3,116.3,0,110.2,0c-1.9,0.2-3.8,1-5.3,2.3c0,0.1-0.1,0.1-0.2,0.2
				c-0.8,0.9-1.5,1.8-2.1,2.8c-2.4,3.5-6.2,8.9-12,12.1c-0.3,0.2-0.5,0.6-0.3,0.9c1.7,3.3,4.4,5.8,7.7,7.2c-5.1,1.5-6.3,5.1-7.7,9.2
				l-0.2,0.7c-0.4,1.4-1.4,3.5-2.5,6c-1.3,3.2-3,6.6-4.1,10.1c-0.1,0.1-0.2,0.2-0.2,0.3c0,0.1,0,0.2,0,0.4c-0.9,2.5-1.5,5.1-1.6,7.8
				c0,6.7,2.9,13.5,5.4,18.1c-0.3,1-0.5,2-0.8,2.9c-0.6,2.7-0.9,5.5-0.9,8.3c0,6,8.4,35.8,10.1,42.1l1.5,0.2
				c-4.2-14.7-10.2-37.3-10.2-42.1c0-2.5,0.3-4.9,0.7-7.3c6.9,2.7,14.3,4.1,21.8,4.1c1.2,0,2.4-0.1,3.7-0.2
				c-0.5,1.1-1.1,2.1-1.6,3.2c-0.2,0.5-0.4,0.9-0.7,1.4c-0.2-0.7-0.2-1.5-0.2-2.2c0-0.4,0-0.8,0-1.2c0.1-0.3-0.2-0.7-0.6-0.7
				c-0.4,0-0.7,0.3-0.8,0.6c0,0.4,0,0.9,0,1.3c0,1.4,0.2,2.8,0.7,4c0.3,1.2,0.9,2.2,1.6,3.2c1.4,1.8,3.2,3,4.5,3
				c0.4,0,0.8-0.3,0.8-0.7s-0.3-0.7-0.7-0.7c-1.1-0.3-2-0.9-2.8-1.7c0.1,0,0.1,0,0.2-0.1c3.1-2.5,5.9-5.3,8.4-8.4
				c0.7,2.7,1.1,5.4,1.2,8.1c0,6-2.2,11.4-4.5,17.1c-2.5,5.8-4.9,11.9-5.2,19.2h1.4c0.3-7,2.6-13,5-18.7c2.4-5.8,4.6-11.3,4.6-17.6
				c-0.1-3.2-0.6-6.3-1.4-9.4c1.5-1.8,2.9-3.8,4.4-5.6c1.7-2.3,3.3-4.5,5-6.5C133.5,71.9,134.1,69.5,133.6,67.2z M91.7,18.3
				c5.9-3.4,9.5-8.7,12-12.3c0.8-1,1.4-1.9,1.8-2.6c0-0.1,0.1-0.1,0.2-0.2c1.2-1.1,2.8-1.8,4.5-1.9c4.7,0,5.4,3.5,6.3,9.7
				c0.5,3.5,1,7.4,2.8,10.8c-2.1,1.8-4.5,2.9-7.1,3.5c-0.7-0.1-1.5-0.2-2.3-0.3c-0.1-2.3-0.2-4.4-0.2-6.5c2.8-0.1,4.7-2.5,5.6-4.8
				v-0.1c0.1-0.3-0.1-0.7-0.5-0.8c-3.5-1-5.9-4.2-5.9-7.8c0-0.2-0.1-0.4-0.2-0.6c-0.2-0.1-0.4-0.1-0.6-0.1c-1.3,0.3-2.5,1-3.3,2.1
				c-1.2,1.7-1.9,3.8-1.9,5.9c-0.1,2,0.8,3.9,2.3,5c-0.5,2.5-1,5-1.5,7.5c-0.8,0-1.6,0.1-2.3,0.2c-0.1,0-0.2,0-0.2,0
				c-0.1,0-0.3,0-0.4,0.1c-0.1,0-0.1,0-0.2,0c-0.1,0-0.1-0.1-0.2-0.1C96.7,23.9,93.6,21.6,91.7,18.3z M106.4,18
				c0.6,0.2,1.2,0.4,1.9,0.4c0,2.3,0.1,4.6,0.2,7.2c0,0.4,0.3,0.7,0.6,0.7c0.9,0.1,1.8,0.2,2.5,0.3c-3,7.2-5.9,11.7-7.7,11.7
				c-1.9,0-2-8.2-2.1-12.2c0.8-0.1,1.6-0.1,2.4-0.1c0.4,0,0.6-0.2,0.7-0.5C105.4,23,105.9,20.5,106.4,18z M104.2,12.2
				c0-1.8,0.6-3.6,1.6-5.1c0.4-0.6,1-1.1,1.7-1.3c0.3,3.6,2.7,6.7,6.1,8c-0.7,1.6-2.1,3.2-4,3.2c-0.2,0-0.4,0-0.6,0
				c-1,0-1.9-0.3-2.8-0.7c0,0-0.1,0-0.1,0C104.8,15.4,104,13.8,104.2,12.2z M82.9,59.9c0.1-2.4,0.6-4.7,1.4-6.9
				c1.7,0.7,3.4,1.4,5.1,1.9c0,1.7,0.1,3.3,0.2,4.8c0.1,1.6,0.2,3.2,0.2,4.8c0,3.8-0.7,7.6-2.1,11.2c-0.1,0.2-0.1,0.4-0.2,0.6
				C85.3,71.9,82.9,65.8,82.9,59.9z M109.2,85c-7.3-0.1-14.7-1.4-21.5-4.1c0.2-0.8,0.4-1.7,0.7-2.5c0.2-0.7,0.4-1.3,0.6-2
				c1.4-3.7,2.1-7.7,2.1-11.7c0-1.6-0.1-3.3-0.2-4.9c-0.1-1.6-0.2-3.2-0.2-4.8c0-0.1,0-0.2,0-0.3c0,0,0.1-0.1,0.1-0.1
				c0-0.1,0-0.3-0.1-0.4c0.1-2.8,1-5.6,2.6-8c1.2-1.7,1.9-3.8,2-5.9c0-0.1,0-0.2,0-0.4c0-0.4-0.3-0.7-0.7-0.6
				c-0.4,0-0.7,0.3-0.6,0.7c0,0.1,0,0.2,0,0.3c-0.1,1.9-0.7,3.7-1.8,5.2c-1.7,2.4-2.6,5.2-2.8,8.1c-1.6-0.5-3.1-1-4.7-1.8
				c1.2-3.4,2.8-6.8,4.1-9.8c1.1-2.5,2.1-4.7,2.6-6.2l0.2-0.7c1.4-4.6,2.5-7.8,8.6-8.8c0,0,0.1,0,0.1,0c0.1,6.3,0.2,13.3,3.5,13.3
				c3.2,0,6.6-6.9,9.1-12.8c11.6,2.3,13,9.6,17.1,30.3l0.2,0.7c-2.2,1.1-4.5,2.1-6.8,3c-0.6-1.3-1.2-2.8-1.8-4.3c0,0,0-0.1,0-0.1
				c-1.7-4.6-3.2-9.3-4.4-14.1c-0.1-0.4-0.4-0.6-0.8-0.5c-0.4,0.1-0.6,0.5-0.5,0.9c1.2,4.7,2.7,9.4,4.3,14
				c-1.4,4.3-2.2,8.7-2.5,13.3c0.1,2,0.3,4.1,0.8,6c-1.4,2.5-3,5.3-4.8,8.8C112.2,84.9,110.7,85,109.2,85z M121,58.7
				c0.5,1.2,0.9,2.2,1.4,3.2c0.6,1.3,1.2,2.4,1.7,3.5c0.4,0.7,0.3,1.6-0.2,2.2c-1.5,2.1-3,4.2-4.3,6.5c-0.2-1.3-0.4-2.7-0.4-4.1
				C119.3,66.2,119.9,62.4,121,58.7z M131,73c-1.7,2-3.4,4.2-5.1,6.5c-1.5,1.9-2.9,3.8-4.4,5.7c-0.1,0.1-0.2,0.2-0.2,0.3
				c-2.7,3.4-5.6,6.5-9,9.2c0,0,0,0-0.1,0.1c-0.5-0.6-0.9-1.3-1.1-2c0,0,0-0.1,0-0.1c0.4-0.8,0.9-1.6,1.3-2.5
				c0.7-1.4,1.5-2.8,2.3-4.3c0,0,0-0.1,0-0.1c1.9-3.6,3.4-6.4,4.9-9c0.2-0.1,0.3-0.3,0.3-0.5c1.5-2.7,3.2-5.2,5-7.7
				c0.8-1,1-2.4,0.4-3.6c-0.5-0.9-0.9-1.8-1.4-2.8c2.3-0.8,4.5-1.8,6.6-2.9c0.5,2.6,1.1,5.4,1.7,8.4C132.7,69.5,132.2,71.5,131,73z"
				/>
			<path class="st4" d="M103,119.7c0-0.4,0-0.7,0-1.1v-0.1c0-0.1-0.4-5.1-0.4-13.7c0-1.1,0-2.1,0-3.2c0-1.1,0-2.1,0-3.2
				c0-1.1,0-2.2,0-3.3c0-0.3-0.2-0.5-0.4-0.6c-1.5-0.6-2.8-1.5-3.9-2.6c-0.2-0.3-0.7-0.3-0.9-0.1c-0.3,0.2-0.3,0.7-0.1,1
				c1.1,1.2,2.5,2.2,3.9,2.8c0,0.9,0,1.9,0,2.8c0,1.1,0,2.1,0,3.2c0,1.1,0,2.1,0,3.2c0,8.4,0.4,13.4,0.4,13.8c0,0.3,0,0.7,0,1
				c0,0.4,0,0.7,0,1.1c0,0.4,0.3,6,0.9,10.9h1.4c-0.6-4.8-0.9-10.4-0.9-10.9C103,120.4,103,120,103,119.7z"/>
		</g>
		<path id="Tracé_2051" class="st3" d="M96.6,94.5c0.9,3,1.6,6,2.1,9.1c-0.1,2.6-0.1,5.3,0,7.9c0.1,6.4,1.4,12.5,2.1,18.8
			c0,0.6,0.5,1,1.1,1c0.5,0,1-0.5,1-1c0.5-6.3,0.5-12.7,0.2-19.1c-0.2-4-0.6-7.9-1.3-11.8c0-1.7-0.4-3.3-1.2-4.8l0,0
			c-0.1-0.3-0.2-0.5-0.3-0.8c-0.2-0.8-1-1.3-1.8-1.4h-0.2c-0.9,0-1.7,0.8-1.7,1.7v0.2C96.6,94.3,96.6,94.4,96.6,94.5z"/>
		<path id="Tracé_2052" class="st3" d="M115.4,26.5c0.2,1.3,1.5,2.2,2.8,1.9c0.1,0,0.2,0,0.3-0.1c1.7-0.6,2.9,0.5,3.8,1.9
			c-0.1-0.1-0.2-0.2-0.3-0.2c-0.2-0.2-0.5,0.2-0.4,0.4c5.4,10.2,7.5,21.6,8.4,33c0.6,5.8-1.1,11.7-4.6,16.3c-0.7,1-1.5,2-2.3,3
			c-0.4,0.1-0.6,0.4-0.7,0.8l0,0c-2.8,3.3-6.1,6.1-9.6,8.6c-2.4,1.6-1,6.2,2.1,5c3.1-1.3,5.9-3.2,8.3-5.6c0,0.7,0,1.4,0,2.2
			c-0.2,4.3-1.6,8.4-2.9,12.4s-2.6,7.9-3.5,12s-2.3,8.6-2,12.9c0,0.2,0.1,0.3,0.2,0.5h2.4c1.8-4.1,2.6-8.9,3.9-13.2
			c1.4-4.5,2.9-8.9,4.4-13.4c1.3-4,2.6-8.3,2.4-12.6c0-1.8-0.3-3.5-0.7-5.2c0.9-1.1,1.8-2.2,2.6-3.3c4.3-5.6,6.7-11.9,6.2-19
			c-0.5-6.8-1.9-13.6-4-20.1c-0.2-0.7-0.4-1.3-0.7-2c-0.4-2.4-0.8-4.9-1.2-7.3c-0.9-4.2-2.8-9.4-6.4-11.5c0.3-1.9-0.6-4.4-1.1-6
			c-0.9-3.5-2.1-7-3.6-10.3c-1.3-2.5-3.3-5.8-6.2-6.6c-0.4-0.1-0.8,0.1-0.9,0.5c0,0.1,0,0.2,0,0.4c0.6,1.6,1.6,3,2.3,4.6
			c0.7,1.7,1.1,3.5,1.4,5.4c0.3,1.7,0.6,3.5,1,5.2c0.2,1.3,0.7,2.7,1,4.1c-2.9,0.6-5.8,1.1-8.7,1.7c-1.8,0.4-1.2,2.9,0.4,3
			c1.1,0.1,2.1,0.2,3.2,0.2c-2.7,4-5,8.4-8.2,12.2c-0.2,0.2,0,0.6,0.3,0.4C109.3,36,112.5,31,115.4,26.5z"/>
		<path id="Tracé_2053" class="st3" d="M23.5,100c-0.1,3,0.1,6,0.5,9c0.6,4.1,1.2,8.2,1.7,12.3c0,0.4,0.2,4.9,0.5,10.2h17.6
			c-2.8-12.1-7.2-33.7-7.5-38.9C35.9,86.5,36,80,40.1,75.2c3.8-4.5,8.9-7.9,13.2-11.9c4-3.6,7.4-7.8,10.2-12.4c1-1,2-2,3-3.1
			c1.9-2.2-1.5-4.8-3-2.9c-4.9,3.4-9.4,7.5-14.1,11C44.1,59.8,39.2,64,34,67.4c-3.8,2.5-5.9-0.8-7-4.3L26.3,57
			c-0.5-4.7-1.3-9.3-2.4-13.9c0-0.1-0.1-0.2-0.2-0.2c-0.2-0.9-0.5-1.7-0.8-2.6c-0.1-0.3-0.6-0.4-0.7,0c-0.9,3.7-0.5,7.7-0.6,11.4
			c-0.1,3.3,0.1,6.7,0.5,10c0.4,3.4,1.7,6.5,3.7,9.2c0,0.1,0.1,0.2,0.1,0.3c-0.6,0.5-0.9,1.2-0.9,1.9c0.1,3.5-0.2,7.1-0.4,10.6
			c-0.1,1.2-0.2,2.4-0.3,3.7c-0.1,0.2-0.2,0.5-0.3,0.7c-0.8,1.6-4.5,1.7-6.1,1.9c-2.1,0.2-4.3,0-6.4,0.3c-0.2,0.1-0.3,0.3-0.3,0.5
			c0,0.1,0.1,0.1,0.1,0.2c2.5,2,6,2.4,9,2.6c1.4,0.1,2.8,0.1,4.2-0.1c0.1,0.5,0.5,1,1,1.3c-5.8-0.2-11.6-1.2-17.2-3
			c-0.3-0.1-0.7,0.1-0.8,0.5c-0.1,0.2,0,0.4,0.2,0.6C12.1,96.8,17.6,99.3,23.5,100z M28.8,94.6c0,0.7-0.1,1.3-0.1,2
			c-0.2-0.6-0.7-1.2-1.3-1.5C28,95.1,28.4,94.9,28.8,94.6L28.8,94.6z"/>
		<path class="st4" d="M67.9,42.6c-2.3,0.5-4.5,1.1-6.7,1.7c-0.3-1.6-0.8-2.6-1.7-2.6c-2.1,0-2.9,2.9-3.2,4.3
			c-5.4,2.1-10.6,4.7-15.5,7.8c-0.4,0.3-0.9,0.3-1.3,0.1c-0.4-0.1-0.7-0.5-0.8-1l-0.1-0.4c0-0.3-0.1-0.5-0.1-0.8
			c-0.2-1.2-0.3-2.4-0.5-3.6c-0.4-3.8-1.1-7.7-2-11.5c0-0.1,0-0.2,0-0.3c-0.3-1.6-0.7-3.1-1.3-4.5l-0.1-0.1c-0.1-0.3-0.3-0.7-0.4-1
			c-0.1-0.2-0.1-0.4-0.2-0.6c-0.1-0.1-0.1-0.2-0.2-0.3c-0.6-1.1-1.3-2.2-2.1-3.1c0.5-2.4,1.1-4.7,1.8-7.1c1.4,1.1,3.3,1.5,5.1,1.1
			c1.9-0.8,3.4-2.3,4-4.3c1.3-3.2,1.1-6.8-0.6-9.9c-0.4-0.6-0.9-1.2-1.4-1.8c1.2-0.7,2.5-1.2,3.9-1.6c0.2-0.1,0.3-0.2,0.4-0.4
			c0.2-0.4,0-0.7-0.3-0.9c-2.7-1.2-5.6-1.9-8.5-1.9c-6.5,0-9.7,2.7-9.7,8.2c0.1,2,0.5,4,1.4,5.8c0.1,0.2,0.3,0.4,0.5,0.4
			c0.2,0,0.3,0.1,0.5,0.1c-1.1,2.5-2.5,5.8-3.9,8.7C12,23.3,4,43.7,1.9,62.6c0,0.4-0.2,1.1-0.3,1.9C0.5,70.8,0,77.2,0,83.6
			c0,1.1,0,2.5,0.1,3.8c0,3.5,1.3,6.9,3.5,9.5c0,2.4-1.8,23-2.9,34.6h1.4C3.2,119.2,5,97.3,5,96.7c0-0.2-0.1-0.3-0.2-0.5
			c-1.9-2-2.9-4.3-3.2-7.6C9.4,93.3,22,95,27.7,95.5c0,0.2,0.1,0.4,0.1,0.7c0.9,5.2,6.1,23.8,9.5,35.3h1.4
			c-3.4-11.4-8.6-30.3-9.6-35.5c0.4-3.4,0.8-6.9,1.2-10.3v-0.2c0.6-5.1,1.3-9.4,2-12.9c0.1-0.3,0.1-0.5,0.1-0.7
			c0.2,0,0.4,0.1,0.6,0.1c0.9,0,1.8-0.2,2.5-0.7c11.9-7.3,21-15.6,33-27.5c0.2-0.1,0.2-0.4,0.2-0.6C68.6,42.8,68.3,42.5,67.9,42.6z
			 M41.3,16.1c-0.4,1.6-1.6,2.9-3.1,3.5c-1.3,0.4-3-0.1-4.7-1.4c-0.2-0.1-0.4-0.2-0.6-0.1c-0.3,0.1-0.4,0.3-0.5,0.5
			c-0.7,2.2-1.3,4.6-1.8,6.9c-1.2-1.1-2.7-1.8-4.2-2.1c1.4-3,2.9-6.3,3.9-8.8c2.8,0,3.8-1.8,4.8-3.8c1-2.1,2.5-3.9,4.3-5.2
			c0.5,0.6,1,1.1,1.4,1.8C42.3,10.1,42.4,13.3,41.3,16.1z M27.8,8.4c0-4.8,2.5-6.9,8.4-6.9c2.1,0.1,4.2,0.4,6.2,1.1
			c-1,0.4-2,0.9-2.9,1.4c-0.3,0-0.5,0-0.7,0.2c-0.1,0.1-0.1,0.2-0.1,0.3C36.7,6,35,7.9,33.9,10.2c-1.2,2.1-1.8,3.1-3.7,3.1
			c-0.2,0-0.3,0-0.5,0c-0.1,0-0.2,0-0.3,0c-0.2,0-0.4-0.1-0.5-0.1C28.2,11.7,27.8,10,27.8,8.4z M29,85.3v0.2c-0.3,2.8-0.7,5.8-1,8.7
			C22.3,93.6,9.1,91.9,1.5,87c-0.1-1.2-0.1-2.4-0.1-3.4C1.4,77.3,1.9,71,3,64.7c0.1-0.8,0.2-1.5,0.3-2c1.1-10,3.6-19.3,7.2-26.1
			c2.8-5.4,7.5-11.9,14.4-11.9c0,0,0.1,0,0.2,0c0.1,0,0.1,0,0.2,0c0,0,0.1,0,0.1,0c1.8,0.2,3.6,1,4.8,2.4c0,0.2,0.2,0.4,0.4,0.5
			c1.1,1.4,2.1,3,2.7,4.7l0,0c0.5,1.4,0.8,2.8,1.2,4.2c0.9,3.8,1.6,7.7,2,11.6c0.2,1,0.3,2.1,0.4,3.2c-2.3,0.5-6.7,1.6-10.4,2.8
			c-0.9-4.7-1.8-9.7-2.5-15.1c-0.1-0.4-0.4-0.6-0.8-0.6c-0.4,0.1-0.6,0.4-0.6,0.8c0.8,5.8,1.7,11,2.7,16c0.8,4.3,1.8,8.6,3,13.2
			c0.4,1.3,1.3,2.5,2.6,3.1c0,0.2-0.1,0.5-0.1,0.8C30.2,75.8,29.6,80.2,29,85.3z M34.9,70.1c-0.9,0.5-1.9,0.6-2.8,0.3
			c-0.1,0-0.2-0.1-0.3-0.1c-1-0.4-1.7-1.3-2-2.3c-1.2-4.3-2-8.5-2.9-12.6c3.7-1.2,8-2.3,10.3-2.8c0,0,0,0,0,0l0.2,0.8
			c0.1,0.3,0.2,0.7,0.4,1c0.8,1.3,2.5,1.7,3.8,0.9c4.9-3.2,10.2-5.8,15.6-7.9c0.2-0.1,0.3-0.3,0.4-0.5c0.4-2.2,1.1-3.5,1.8-3.6
			c0.4,0.7,0.6,1.4,0.6,2.2v0.1c0.1,0.3,0.4,0.5,0.8,0.4c1.7-0.5,3.4-1,5.1-1.4C53.1,57.2,44.8,64,34.9,70.1z"/>
	</g>
	<g id="Groupe_1458" transform="translate(988.748 675.998)">
		<path id="Tracé_2055" class="st3" d="M21.7,37.9L21.7,37.9c-0.8-1.8-3.1-1.6-4.1-0.3c-1.8,2.2-2.2,5.2-2.9,7.9
			c-0.3,1.3-0.6,2.6-0.7,3.9c-0.5,0.1-0.9,0.2-1.4,0.2c-0.9,0.1-1.8,0.2-2.6,0.3c-0.3,0.1-0.5,0.2-0.6,0.5c0,0.1,0,0.1,0,0.2l0,0
			c0,0.3,0.2,0.6,0.5,0.8c1.7,0.7,3.5,1,5.3,0.7c0.6,0,1.1-0.2,1.6-0.5c0.5,0.6,1.3,0.9,2.1,0.9c1.2,0.6,2.7,0.5,3.2-1.3
			c1-3.6,1.1-7.6,1.5-11.3c0.1-1-0.6-1.9-1.6-2C21.9,37.9,21.8,37.9,21.7,37.9z"/>
		<path id="Tracé_2056" class="st3" d="M23.8,19.5c-1.3,1.3-2.8,2.4-4.3,3.3L19.2,23c-0.9,0.4-1.9,0.7-2.9,1v-0.2
			c-0.2-1,0.5-2.4,0.7-3.4c0.6-3.3,0.6-6.7-0.1-10c0.2-1.9,0-3.8-2-4.8C14,5.3,13,5.8,12.7,6.7c-0.1,0.3-0.1,0.6,0,0.9
			c0.3,0.9,0.6,1.7,0.8,2.6c-0.2,1.1-0.5,2.5-0.5,2.7c-0.3,1.8-0.6,3.7-0.9,5.5c-0.4,2.5-0.9,5.7-2.3,7.9c-2.1-0.1-4.2-0.6-6.1-1.5
			c-0.1-0.1-0.3,0-0.4,0.1c-0.1,0.1,0,0.2,0,0.3c1.6,2.3,3.9,5.2,7.1,5.4c0.2,0,0.4,0,0.6,0c-0.3,1.4-0.5,2.9-0.6,4.3
			c-0.2,2.7,3.6,4,5,1.6c0.6-0.9,1-0.6,1.9-0.4c1.1,0.3,2.2-0.1,2.8-1c0.3-0.4,0.4-0.9,0.5-1.4c0-0.7-0.3-1.3-0.9-1.7
			c1.3,1,0.3,0.4,0,0c-0.3-0.2-0.7-0.4-1-0.6c-0.9-0.4-1.8-0.6-2.8-0.6c0-0.4,0-0.7,0-1.1c0.1-1.2,0.4-1.3,1.5-1.6
			c0.6-0.2,1.2-0.4,1.8-0.6c2.7-1.2,5.1-3,7.1-5.2C27.9,20.6,25.5,17.9,23.8,19.5z"/>
		<path id="Tracé_2062" class="st3" d="M26.6,56.2c0.5-1.1,0.6-2.3,0.1-3.5c-0.4-1.2-1.8-1.9-3-1.5c-0.2,0.1-0.3,0.1-0.5,0.2
			c-0.7,0.5-0.9,1.3-1.6,1.8c-1,0.5-2.1,0.7-3.2,0.7c-2.7,0.2-5.5,0.2-8.2,0.5c-2.4,0.2-5.9,0.2-7.9,1.6v0.1h24.3
			C26.6,56.1,26.6,56.2,26.6,56.2z"/>
		<path class="st4" d="M12.6,26.4l0.2-0.7c0.1-0.2,0.1-0.4,0.2-0.7c1,0.4,2,0.6,3,0.6c1.3,0.1,2.6-0.1,3.8-0.5
			c2.5-1,4.5-2.9,5.6-5.4c0.1-0.3,0-0.6-0.3-0.7c-0.1,0-0.2,0-0.2,0c0,0,0.1-0.1,0.1-0.1c0.1-0.3-0.1-0.6-0.3-0.7
			c-4.1-0.9-8.2,0.5-10.9,3.4c0.3-1.7,0.5-3.4,0.5-5.1c0-0.4,0-0.7,0-1.1c2.8-5.6,0.5-12.4-5-15.3C9,0,8.9,0,8.7,0
			c-0.1,0-0.3,0.1-0.3,0.3C8.3,0.5,8.2,0.7,8.1,0.9c-2.9,5.6-0.6,12.5,5,15.4c0,0.1,0,0.2,0,0.3c-0.2,2.4-0.4,4.7-0.9,7
			c-0.1,0-0.2,0.1-0.3,0.3c-0.2,0.3-0.1,0.5,0.1,0.7c-0.1,0.3-0.1,0.6-0.2,0.9l-0.1,0.3c-1-5.3-4.9-9.8-10.3-11.4c0,0-0.1,0-0.1,0
			c0,0,0,0,0,0c-0.2-0.1-0.6,0.1-0.6,0.3c-0.4,1-0.5,2-0.6,3c-0.4,6.4,4.5,11.9,10.8,12.4c-0.3,2-0.4,4-0.4,6.1c0,0,0,0.1,0,0.1H5.4
			c-0.1,0-0.3,0.1-0.4,0.2c-0.1,0.2-0.1,0.3-0.1,0.5l3.4,14.3c-2-0.2-4-0.2-6.1,0c-0.3,0-0.5,0.3-0.5,0.6c0,0.2,0,0.3,0.1,0.4v3.3
			c0,0.1,0.1,0.3,0.2,0.4c0.1,0.1,0.1,0.2,0.2,0.2h21.6c0.3,0,0.5-0.2,0.5-0.5l0.3-3.1c0-0.2-0.1-0.5-0.3-0.6
			c-0.1-0.3-0.2-0.4-0.5-0.4h-5.5l3.1-14.6c0-0.2,0-0.4-0.1-0.5c-0.1-0.1-0.2-0.2-0.4-0.2h-2.6c0.3-0.3,0.5-0.7,0.5-1
			c0-0.3-0.2-0.6-0.5-0.6c-0.3,0-0.6,0.2-0.6,0.5c-0.1,0.2-0.2,0.4-0.4,0.5c-0.2,0.1-0.3,0.3-0.3,0.5c0,0,0,0.1,0,0.1h-1.4l1.1-2
			c0.2-0.2,0.1-0.6-0.2-0.7c-0.3-0.2-0.6-0.1-0.7,0.2l-1.1,2.1c-0.1,0.2-0.1,0.3-0.1,0.4h-0.9l1.5-4.1c0.1-0.3,0-0.6-0.3-0.7
			c-0.3-0.1-0.6,0-0.7,0.3l-1.7,4.3c0,0.1,0,0.1,0,0.2h-1.2c0-0.1,0.1-0.2,0.1-0.3C11.4,32.8,11.7,29.5,12.6,26.4z M6.7,40.2l13,0.1
			l-2.5,11.4c0,0-0.1,0-0.1,0.1l-7.5-0.3c-0.1,0-0.1,0-0.2,0L6.7,40.2z M2.9,55.1v-2.6c2.4-0.1,4.8,0,7.2,0.2c0.1,0,0.3,0,0.4-0.1
			l7.1,0.2c0.2,0,0.3,0,0.4-0.1h5.5l-0.2,2.4H2.9z M19.9,39.2C19.9,39.2,19.8,39.2,19.9,39.2L6.4,39.1l-0.4-1.6h14.2L19.9,39.2z
			 M24.2,19.4c0.1,0,0.2,0,0.2,0c0,0-0.1,0.1-0.1,0.1c-0.1,0.2-0.2,0.4-0.3,0.6c-1.9,3.6-6,5.3-9.8,4.3c1.4-0.6,2.9-0.9,4.5-0.9
			c0.3,0,0.5-0.3,0.5-0.6s-0.3-0.5-0.6-0.5c-1.7,0-3.4,0.4-5,1C15.9,20.1,20.2,18.4,24.2,19.4z M9.1,1.2c4.3,2.5,6.1,7.4,4.8,11.9
			c-0.5-2.2-1.5-4.3-3-6.1c-0.2-0.2-0.6-0.2-0.8,0s-0.2,0.6,0,0.8c1.7,2.1,2.7,4.6,2.9,7.2C8.3,12.2,6.5,6.1,9.1,1.2z M1.4,15.7
			c5.5,1.8,9.3,7,9.3,12.9c-1.7-1.7-3-3.8-3.9-6.2c-0.1-0.3-0.4-0.5-0.7-0.4c-0.3,0.1-0.5,0.4-0.4,0.7c0.8,2.2,2.1,4.3,3.7,6.1
			c-0.4-0.1-0.7-0.2-1.1-0.3C3,26.8,0,21.1,1.4,15.7z"/>
	</g>
	<path id="Tracé_2075" class="st7" d="M487.6,701"/>
	<g id="Groupe_1460" transform="translate(426.012 565.083)">
		<path id="Tracé_2076" class="st3" d="M13.5,8.1c1.1,0.1,2.1,0.5,3,1.2c3.2,2,5.3,5.9,5.9,9.6c0.2,2.1-0.3,4.2-1.6,5.8
			c-1.2,1.6-2.8,2.8-4.5,3.7c-0.6,0.3-1.2,0.7-1.6,1.2c-0.9,1-1.7,2.1-2.2,3.3c-0.3,0.6-0.5,1.3-0.8,1.9c-0.4,0.5-0.9,1-1.4,1.2
			c-0.5,0.3-1,0.5-1.6,0.5L6,35.9c0,0,2.3-0.3,2.6-0.9c0.1-0.3,0.2-0.6,0.4-0.8l0.5-1l0.5-1l1.5-3.1l2.6-2.6l3-2.1l2.4-3.4l0.7-4.4
			l-1.9-5.1L15,8.6l-4.6-1.1L7.9,7.8L13.5,8.1z"/>
		<path id="Tracé_2078" class="st0" d="M12.6,20.5c-0.2-0.3-0.2-0.6-0.2-0.9c0-0.6-0.2-1.1-0.6-1.5c-0.4-0.4-1-0.3-1.4,0.1
			c0,0,0,0,0,0.1h-0.1c-0.1-0.3-0.2-0.5-0.2-0.8c0-0.5-0.2-1.1-0.6-1.5c-0.4-0.4-1-0.3-1.4,0.1l0,0H8c0-0.1-0.1-0.4-0.1-0.7
			c0-0.6-0.2-1.1-0.6-1.5c-0.2-0.2-0.5-0.2-0.7,0c-0.1,0.1-0.1,0.2-0.1,0.4c0,0.1,0.1,0.3,0.2,0.4c0.2,0.3,0.2,0.6,0.2,0.9
			c0,0.5,0.2,1.1,0.6,1.5s0.9,0.4,1.4-0.1H9c0,0.1,0,0.4,0,0.7c0,0.5,0.2,1.1,0.6,1.5c0.4,0.4,1,0.3,1.4-0.1c0,0,0,0,0-0.1h0.1
			c0.1,0.3,0.2,0.5,0.2,0.8c0,0.5,0.2,1.1,0.6,1.5c0.1,0.1,0.2,0.1,0.2,0.1c0.2,0,0.4,0,0.5-0.1s0.1-0.2,0.1-0.4
			C12.7,20.7,12.7,20.6,12.6,20.5z"/>
		<path class="st1" d="M19.2,12.1c-1.4-2.5-3.8-4.2-6.5-4.8C7.1,5.9,1.6,9.4,0.3,14.9c-0.6,2.7-0.2,5.6,1.4,8
			c0.9,1.3,1.5,2.8,1.7,4.4c0,0.2,0.1,0.4,0.1,0.6c0,0.5,0,1,0,1.5v0.1v0.1c0,0.6-0.1,1.2-0.2,1.8c-0.1,0.5,0,0.9,0.3,1.3
			c-0.2,1.5,0.8,2.9,2.2,3.3c1.5,0.3,3-0.5,3.5-1.9c0.5-0.2,0.9-0.6,1-1.1c0.2-0.6,0.4-1.2,0.6-1.7l0.1-0.2c0.2-0.4,0.4-0.9,0.7-1.3
			c0.1-0.2,0.2-0.3,0.3-0.5c0.9-1.3,2.1-2.4,3.5-3.1C20.4,23.3,22,17,19.2,12.1z M6.1,35c-0.8-0.2-1.3-0.8-1.5-1.4
			c0.5,0.3,1,0.5,1.6,0.7c0.4,0.1,0.9,0.2,1.3,0.2c0.1,0,0.2,0,0.3,0C7.5,34.9,6.8,35.1,6.1,35z M9.3,32.7c0,0.2-0.2,0.3-0.6,0.5
			c-0.1,0-0.1,0-0.2,0.1c-0.3,0.1-0.6,0.1-1,0.1c-1,0-2.1-0.4-2.9-1c0-0.2-0.1-0.3-0.3-0.4c-0.1-0.1-0.1-0.3-0.1-0.5
			c0-0.2,0-0.4,0.1-0.6c1.4,1.2,3.4,1.7,5.2,1.2C9.4,32.3,9.3,32.5,9.3,32.7z M10.1,30.6c-0.3,0.3-0.5,0.4-0.8,0.5
			c-1.5,0.4-3.1,0-4.3-1c-0.2-0.2-0.4-0.4-0.5-0.7v-0.1c0-0.2,0-0.4,0-0.5c0.8,0.7,1.7,1.1,2.7,1.4c1,0.2,2.1,0.3,3.1,0
			C10.2,30.3,10.1,30.5,10.1,30.6z M15,25.2c-1.5,0.9-2.7,2-3.7,3.4c0,0-0.1,0-0.1,0.1c-0.3,0.2-0.6,0.4-1,0.5
			c-1.8,0.4-3.7,0-5.2-1.2c-0.3-0.2-0.5-0.5-0.6-0.9c0,0,0,0-0.1-0.1c-0.3-1.7-0.9-3.2-1.8-4.6c-1.4-2.1-1.8-4.7-1.2-7.2
			c1.2-5,6.2-8,11.1-6.9c4.9,1.1,8,6.2,6.9,11.1C18.7,21.9,17.2,24,15,25.2z"/>
		<path id="Tracé_2082" class="st1" d="M15.1,5.4c-0.4,0-0.7-0.3-0.7-0.7l-0.1-4C14.3,0.3,14.6,0,15,0l0,0l0,0
			c0.4,0,0.7,0.3,0.7,0.7l0.1,4C15.8,5.1,15.5,5.4,15.1,5.4L15.1,5.4z"/>
		<path id="Tracé_2083" class="st1" d="M20.4,8.1c-0.2,0-0.3-0.1-0.5-0.2c-0.3-0.2-0.3-0.7-0.1-1l0,0l3.3-3.8
			c0.3-0.3,0.7-0.3,1-0.1c0.3,0.3,0.3,0.7,0.1,1l-3.3,3.8C20.8,8.1,20.6,8.1,20.4,8.1z"/>
		<path id="Tracé_2084" class="st1" d="M23.4,12.4c-0.4,0-0.7-0.3-0.7-0.7c0-0.3,0.2-0.6,0.6-0.7l4.8-0.8c0.4-0.1,0.7,0.2,0.8,0.6
			s-0.2,0.7-0.6,0.8L23.4,12.4L23.4,12.4z"/>
	</g>
	<g id="Groupe_1466" transform="translate(1049.648 707.053)">
		<path id="Tracé_2085" class="st8" d="M8,20.1c1.1,2.2,3,4,5.2,5.1h5.5c0-1.2-2.2-2.9-0.1-1.7c2.7,1.6,11.1,2.7,16-0.6
			s2.2-17.7-2.1-21.6C29,1,8.9,7.8,8.9,7.8L2.4,9.1c-4.8,1.8,1,8.3,1,8.3C5.3,17.1,7.2,18.2,8,20.1z"/>
		<path id="Tracé_2087" class="st9" d="M31.2,6.4c1.6,4.4,0.9,9.3-1.7,13.2c-2.3,3-5.3,3-7.1,0c-0.2-0.3-0.4-0.7-0.5-1
			c-0.5-1.2-0.8-2.6-0.8-3.9l5.6-0.1c0.3,0,0.5-0.1,0.8-0.2c1.1-0.5,1.6-1.7,1.2-2.8c-0.3-0.7-0.9-1.2-1.6-1.3l-5.3-0.9
			c0.4-1.4,1-2.8,1.9-3.9c0.3-0.4,0.7-0.8,1.1-1.2C27,2.2,29.8,3,31.2,6.4z"/>
		<path id="Tracé_2090" class="st9" d="M17.7,20.9c0.7,0.8,0.9,1.6,0.5,2.1l-1,1.3c0.4-0.5,0.2-1.3-0.5-2.1
			c-1.3-1.4-2.5-2.9-3.6-4.5c0.9,0.2,1.7,0.5,2.6,0.8C16.3,19.3,17,20.1,17.7,20.9z"/>
		<path id="Tracé_2092" class="st0" d="M4.8,5.3c0.4,0,0.9,0,1.5-0.1c-1.9,3.2-2.2,7.1-1,10.7l0.1,0.2c-0.8-0.1-1.7-0.3-2.5-0.5
			c-1.4-0.7-2.3-2-2.4-3.5c-0.1-1.3,0.1-2.7,0.5-4C1.6,6.5,3.1,5.4,4.8,5.3z"/>
		<path class="st1" d="M32.9,4.5c-0.6-1.9-2-3.4-3.8-4.2c-1.2-0.4-2.5-0.4-3.6,0.1c-0.6,0.3-1.2,0.7-1.8,1.1
			c-0.1,0.1-0.1,0.1-0.1,0.2c-4.1,1.9-13.5,2.8-17.3,3c-0.4,0-0.8,0-1.1,0H4.8C2.9,4.8,1.3,6,0.6,7.8C0.1,9.2-0.1,10.6,0,12
			c0.2,1.7,1.2,3.2,2.7,3.9c0.8,0.3,1.7,0.5,2.5,0.6c0,0,0,0,0.1,0l0,0C6,16.7,6.9,16.8,7.8,17c1.7,2.6,3.7,4.9,6,7.1
			c0.7,0.7,1.6,1.1,2.5,1.2c0.1,0,0.2,0,0.3,0s0.3-0.1,0.4-0.1c0.2-0.1,0.4-0.2,0.5-0.4c0.1-0.1,0.1-0.2,0.1-0.2l1-1.3
			c0.5-0.7,0.3-1.7-0.6-2.7c-0.3-0.3-0.6-0.7-0.9-1c1.2,0.6,2.4,1.3,3.4,2.2c0,0.1,0.1,0.1,0.1,0.2c0.9,1.7,2.6,2.9,4.5,3.1h0.3
			c0.7,0,1.4-0.1,2-0.4c1.3-0.6,2.5-1.5,3.3-2.7C34.1,17.5,35.1,9.7,32.9,4.5z M1,12c-0.1-1.3,0-2.6,0.5-3.8C2,6.8,3.3,5.8,4.8,5.7
			h0.4h0.4c-0.9,1.9-1.4,4-1.4,6.1c0,1.2,0.2,2.5,0.6,3.7c-0.6-0.1-1.2-0.2-1.7-0.3C1.9,14.5,1.1,13.3,1,12z M16.5,24.2
			c-0.1,0-0.1,0-0.2,0c-0.7-0.1-1.4-0.4-1.9-0.9c-1.9-1.8-3.7-3.9-5.2-6.1c1.3,0.3,2.5,0.6,3.7,0.9c1.1,1.5,2.2,3,3.5,4.4
			c0.5,0.5,0.6,1,0.6,1.3l-0.1,0.1c-0.1,0.1-0.1,0.1-0.1,0.2C16.6,24.1,16.6,24.2,16.5,24.2z M17.8,22.6l-0.2,0.2
			c-0.1-0.3-0.3-0.6-0.6-0.9c-1-1.1-2-2.2-2.8-3.4c0.4,0.1,0.8,0.3,1.1,0.4c0.6,0.7,1.2,1.5,2,2.2C17.9,21.8,18,22.4,17.8,22.6z
			 M15.9,18c-0.8-0.4-1.7-0.6-2.6-0.9c-1.5-0.4-3.1-0.7-5-1.1c-0.9-0.2-1.9-0.4-2.7-0.5c-1.1-3.3-0.7-6.9,1-9.9
			c3.7-0.2,11.2-0.9,15.8-2.5l0,0c-3.3,4.2-4.3,11.7-2.6,16.8C18.5,19.1,17.3,18.5,15.9,18z M29.9,21.4c-1.4,1.7-3,2.7-4.5,2.7
			c-0.1,0-0.1,0-0.2,0c-1.5-0.2-2.8-1.1-3.5-2.3c0.1-0.2,0-0.4-0.1-0.5s-0.1-0.1-0.2-0.2c-0.1-0.3-0.3-0.6-0.4-0.9
			c-2-4.9-1.1-12.3,2.1-16.5c0.4-0.6,0.9-1,1.3-1.5c0.5-0.4,1-0.7,1.6-1c0.9-0.4,2-0.4,2.9,0C30.3,2,31.5,3.3,32,4.9
			C34.1,9.8,33.1,17.2,29.9,21.4z"/>
		<path class="st1" d="M31.6,6.2c-0.6-1.6-1.9-2.9-3.5-3.4c-1.4-0.3-2.8,0.1-3.8,1.1c-0.4,0.4-0.8,0.8-1.2,1.4c-0.9,1.2-1.6,2.5-2,4
			l0,0l0,0v0.1c-0.5,1.8-0.7,3.6-0.6,5.5c0.1,1.3,0.4,2.7,0.9,4c0.2,0.4,0.4,0.7,0.6,1.1c0.6,1.3,2,2.2,3.5,2.4h0.2
			c0.5-0.1,1-0.2,1.5-0.4c1.1-0.4,1.9-1.2,2.6-2.1C32.6,15.9,33.2,10.8,31.6,6.2z M22,9.9l4.8,0.9c0.6,0.1,1.1,0.5,1.3,1
			c0.2,0.4,0.2,0.9,0,1.3c-0.2,0.4-0.5,0.8-1,1c-0.2,0-0.4,0.1-0.6,0.1l-5,0.1C21.5,12.8,21.6,11.3,22,9.9z M26.6,15.1
			c0.4,0,0.7-0.1,1-0.2c0.8-0.4,1.4-1.1,1.5-2c0.3-1.4-0.7-2.8-2.1-3L22.3,9c0.3-1.1,1-2.3,1.7-3.3c0.3-0.4,0.6-0.7,1-1.1
			c0.4-0.3,0.8-0.5,1.2-0.7c0.4-0.2,0.8-0.3,1.2-0.3c0.2,0,0.4,0.1,0.6,0.1c1.4,0.5,2.4,1.6,2.8,2.9c1.5,4.2,0.9,9-1.6,12.7
			c-0.7,1.2-2,2-3.4,2.1h-0.1c-1.2-0.2-2.3-0.9-2.8-2c-0.2-0.3-0.4-0.7-0.5-1c-0.4-1-0.6-2.1-0.7-3.2L26.6,15.1z"/>
		<path id="Tracé_2105" class="st9" d="M38.7,13.9"/>
	</g>
	<g id="Groupe_1479" transform="translate(232.538 600.25)">
		<path id="Tracé_2106" class="st0" d="M50.4,131.9c1.9-12.4,3.2-23.3,3.8-29.3c0.9,3,2,5.9,3.3,8.7c2.9,6,6.1,11.5,8.6,17.5
			c0.4,1,0.9,2,1.3,3.1H80c-0.1-5.4-0.3-10.3-0.6-14.6c0.3-9.9-2.3-19.2-6.4-28.5c-3.5,2-11.5,5.5-17,5.5
			c-6.8,0.1-13.6-0.8-20.2-2.7l-0.2-0.1c-0.1,0.3-0.2,0.6-0.3,0.7c-1.5,4.6-2.1,14.7,2.7,39.6L50.4,131.9z"/>
		<path id="Tracé_2107" class="st0" d="M25.7,49.1c0,4.5-4.1,7.5-8.3,7.5c-2.1,0-4.1-0.8-5.6-2.3c1.7-1.6,3.7-3.4,5.3-4.9v-0.1
			L25.7,49.1z"/>
		<path id="Tracé_2109" class="st2" d="M17.2,49.2v0.2c-1.6,1.5-3.7,3.3-5.3,4.9C10.6,52.9,9.8,51,9.8,49c0-3.7,2.4-7.5,6.2-8.1
			c0.2,0,0.4,0,0.6-0.1C16.9,43.6,17.1,46.4,17.2,49.2z"/>
		<path id="Tracé_2110" class="st3" d="M21.6,45.5c1.3,1.2,1.8,2.7,2.7,4.1c0.4,0.6,1.1,0.8,1.7,0.4c0.5-0.3,0.7-0.8,0.5-1.3
			c-0.7-3.5-5.2-7.4-8.8-7.2c-0.4,0-0.7,0.4-0.7,0.7c0,0.2,0.1,0.5,0.3,0.6C18.9,43.6,20.3,44.5,21.6,45.5z"/>
		<path class="st4" d="M26.2,49c0-0.1,0-0.1-0.1-0.2c-0.2-5.9-6.1-8.5-9.4-8.5c-0.1,0-0.2,0-0.3,0c-0.2,0-0.4,0-0.6,0.1
			c-4.4,0.7-6.7,4.9-6.7,8.6c0,2.1,0.8,4.1,2.2,5.6c1.6,1.6,3.8,2.5,6,2.5c4.2,0,8.7-2.9,8.8-7.8C26.2,49.2,26.2,49.1,26.2,49z
			 M25.1,48.5l-7.4,0.1c-0.1-2.2-0.2-4.7-0.5-7.2C19.4,41.5,24.7,43.4,25.1,48.5z M16,41.5C16,41.5,16,41.5,16,41.5
			c0.4,2.6,0.5,5.2,0.7,7.4c0,0.1,0,0.1,0,0.2c0,0,0,0,0,0c-1.4,1.1-3,2.7-4.8,4.3c-1-1.3-1.6-2.9-1.6-4.5
			C10.3,45.8,12.3,42.1,16,41.5z M17.4,56c-1.8,0.1-3.5-0.6-4.8-1.7c1.8-1.7,3.6-3.3,4.9-4.5c0,0,0,0,0.1-0.1l7.5-0.1
			C24.7,53.6,20.9,56,17.4,56z"/>
		<path id="Tracé_2114" class="st4" d="M68,5.1c0.1,2.6-1.7,4.9-4.2,5.5c-0.7-1.9-2-3.5-3.7-4.5c-0.8-0.4-1.6-0.8-2.5-1
			c0.1-2.4,2-4.4,4.5-4.5c0.2,0,0.3,0,0.5,0C65.1,0.7,68,2.2,68,5.1z"/>
		<path id="Tracé_2115" class="st4" d="M63.8,10.6c0.4,1.1,0.6,2.2,0.6,3.4c0,5.8-3.1,7.6-6,8.2c1.2-1.6,2-3.4,2.1-5.4
			c-5.6-0.3-8.5-2.6-10.1-8.1c-2.9,1.3-4.5,4.7-4.8,7.9c-0.2-0.7-0.4-1.5-0.4-2.2c0-6.3,4.9-9.5,10.2-9.5c0.7,0,1.4,0.1,2.2,0.2
			c0.9,0.2,1.7,0.5,2.5,1C61.8,7.1,63.1,8.7,63.8,10.6z"/>
		<path id="Tracé_2118" class="st6" d="M28.8,58.3L28.8,58.3c-2.4,1.9-4.3,4.4-5.4,7.2c-1-0.8-2-1.7-3-2.6
			c-2.2-2.3-3.4-5.3-3.6-8.4c0-1.1-0.1-2,1.1-2c1.3,0,3.9,2.2,4.2,2.2c0.5,0,1.1-1.1,1.8-1.1C25.4,53.6,27.3,56.4,28.8,58.3z"/>
		<path id="Tracé_2119" class="st3" d="M24.5,66c-1.2-1.1-2.3-2.2-3.4-3.4c-0.9-1.2-2.1-2.2-3.4-3c-0.2-0.1-0.4,0-0.5,0.1
			c0,0,0,0,0,0.1c-0.7,2.5,0.7,5.3,2.3,7.6c-2.7,0.7-5.1,2-7.2,3.9c-0.3,0.3-0.3,0.8,0,1.2c0.1,0.1,0.2,0.2,0.3,0.2
			c4.2,1,9.1-0.7,13-2C28.5,69.6,27.4,65.4,24.5,66z"/>
		<path id="Tracé_2120" class="st3" d="M39.1,63.9c1-0.1,2.1-1.1,1.7-2.2c-2.2-5.7-4.5-11.4-6.9-17.1c-1.1-2.8-2.3-5.5-3.5-8.3
			c-0.9-2.2-1.8-4.7-3.8-6.1c-0.4-0.3-1-0.1-1.2,0.3c0,0.1-0.1,0.1-0.1,0.2c-0.4,2.5,0.7,4.8,1.7,7.1c1.2,2.8,2.3,5.7,3.5,8.5
			c1.6,3.7,3.1,7.4,4.7,11.1c-0.5-0.1-1.1-0.3-1.6-0.4c-1.6-0.6-3.2-1.2-4.7-2c-0.1,0-3-0.8-2.6,0.3c1.2,3.1,4.8,5,8.1,6.2
			c-0.2,0.2-0.4,0.4-0.6,0.6c-0.2,0.3-0.1,0.7,0.1,0.9C35.2,64.5,37.3,64,39.1,63.9z"/>
		<path id="Tracé_2121" class="st3" d="M56.5,131.9c1.2-1.8,0.9-4.5,0.8-6.6c-0.1-3.5-0.2-6.9-0.5-10.4c-0.3-2.9-0.5-6.1-1.7-8.8
			c0.3-0.1,0.5-0.4,0.4-0.7c-0.1-1.1-0.3-2.1-0.3-3.2c0-1-0.9-1.8-1.9-1.8c-0.5,0-0.9,0.2-1.2,0.5c-3.8,3.3-3.9,9.2-4.3,13.8
			c-0.2,2.8-0.4,5.6-0.7,8.3c-0.3,2.8-1.2,5.8-1.1,8.6c0,0.1,0.1,0.1,0.1,0.2L56.5,131.9z"/>
		<path id="Tracé_2133" class="st3" d="M38.3,75c2.3,0.9,4.8,1.5,7.2,1.9c4.6,0.7,8.2-1.4,11.7-4.3c0.5-0.4,1-0.8,1.4-1.3
			c0.1,2.5,0.8,4.9,1.9,7.2c0.9,1.9,2.1,3.7,3.4,5.4c0.4,0.5,0.7,0.9,1,1.5c-0.3,1.7-1.2,3.3-2.4,4.5c-4.7,4.3-12.4,2.7-18.2,3.8
			c-0.1,0-0.3,0.2-0.3,0.3c-0.1,0-0.2,0-0.3,0c-0.2,0-0.1,0.3,0,0.3c3.7,2.9,8.7,3.6,13.4,3.6c2.4,0,4.9-0.3,7.3-0.7
			c1.2-0.2,2.4-0.4,3.6-0.8c0.3,1.1,0.7,2.1,1.2,3.2c0,0.1,0,0.2,0,0.2c0.3,2.5,0.8,5,1.5,7.5c0.7,2.7,1.4,5.5,2.1,8.2
			c1.4,5.4,2.4,11,4.3,16.3H88c2.7-4.7,2.4-21.1-3-34.6C82.1,90,77.7,83.4,72.1,78l-1.6-2c-0.5-0.6-0.9-1.3-1.3-2
			c-0.1-0.3-0.3-0.6-0.4-0.9c-0.5-4.9,1-10.1,2.3-15.1c0.8-2.1,1.7-4.1,2.3-5.9c2-6.6,1.6-15.3-5.2-18.9c-1.6-0.9-3.6-1.4-5.1-2.5
			c-0.9-0.6-2.2-1.8-2-3.1c0-0.4,0.6-1.3,0.3-1c0.7-0.5,2-0.4,2.8-0.8c0.8-0.4,1.5-1,2.1-1.6c1.5-1.4,2.4-3.3,2.4-5.3
			c0-1.8-0.7-3.5-0.6-5.3s1.4-3.1,1.9-4.8c0.9-3-0.8-6.1-3.8-7.1h-0.1c-0.3-0.1-0.5,0.1-0.6,0.4c0,0.1,0,0.2,0,0.2
			C66,4.2,65.8,6.1,65,7.8c-0.9,1.8-1.9,3-2.2,5c-0.2,1.6,0,3.4-0.8,4.9c-0.7,1.3-2.3,1.9-3.3,3s-1.8,2.4-2.3,3.8
			c-3.1,3.5,1.8,8.6,4.5,10.7c2.5,1.9,4.7,3.7,5.5,6.8c0.3,1.3,0.5,2.7,0.4,4.1c-0.1,0.1-0.2,0.3-0.3,0.5c-2.7,7.5-7,14.3-12.6,20
			c-2.6,2.6-5.5,5.1-9.3,5.2c-1.9,0.1-3.7-0.1-5.6-0.1c-1.6-0.1-3.3-0.4-4.7,0.4c-0.1,0.1-0.2,0.3-0.1,0.4
			C34.9,74,36.7,74.5,38.3,75z"/>
		<g>
			<path class="st4" d="M80.1,117.6c0.5-13.5-2.9-25.2-9.8-34c0-0.1-0.1-0.2-0.1-0.3c-0.4-0.4-0.6-0.8-1-1.1c-1-1.1-2-2.3-3-3.3l0,0
				c-1.4-1.8-2.7-4.2-3.3-7.2c-0.7-4.3,0.8-7.6,2.6-11.4c2.2-4.2,3.5-8.8,3.9-13.5c0.1-1.7,0.2-3.4,0.2-5.1
				c-0.1-4.7-3.5-8.8-8.1-9.7c-0.3-0.1-0.6-0.1-0.9-0.2c-1.4-0.3-2.7-0.5-4-0.7c-0.3-1.9-0.6-3.9-0.8-6.1c1.1-0.6,2.2-1.4,3-2.4
				c0,0,0.1,0,0.1,0h0c0,0,0,0,0,0c4-1,6-4,6-8.7c0-1-0.1-1.9-0.4-2.9c2.5-0.9,4.1-3.3,4-5.9c0-3.2-3.1-5.1-6.1-5.1
				c-0.1,0-0.3,0-0.5,0c-2.6,0.1-4.6,1.9-5,4.4c-0.5-0.1-1.1-0.1-1.6-0.1c-5.2,0-10.8,3.2-10.8,10.2c0,0.7,0.1,1.3,0.4,1.9
				c0,0.1,0,0.2,0,0.3c-0.1,0.5-0.1,1-0.1,1.5c-0.1,3.1,1.8,6,4.6,7.3c-0.3,1.7-0.6,3.4-1,5c-1.3,0-2.4-0.1-3.6-0.1c0,0,0,0-0.1,0
				c0,0,0,0,0,0c-0.2,0-0.4,0-0.5,0c-3.9,0.2-7.3,3.3-7.9,7.2c-0.6,3.9-1.5,8.5-3.8,12.5c-0.1,0.1-0.2,0.3-0.2,0.4l-6.7-19.8
				c-0.1-0.3-0.5-0.5-0.8-0.4L0.4,37.8C0,38-0.1,38.4,0,38.7l12.8,32.6c0.1,0.2,0.3,0.4,0.6,0.4L25,67.5c3.6,2.5,7.6,4.6,11.8,6.1
				c0.2,1.6,0.4,3.2,0.4,4.8c0,4.4-0.7,8.7-2.1,12.8l-0.3,0.7c-2.1,6.4-1.2,19.4,2.7,39.8h1.2C34.9,111.8,34,98.6,36,92.5l0-0.1
				c6.5,1.8,13.3,2.7,20.1,2.6c4.3,0,8.6-0.9,12.6-2.8c1.5-0.7,2.9-1.5,4.2-2.4c4.2,7.7,6.2,17,5.9,27.4c0,0.1,0,0.1,0,0.2v0.1v0.2
				c0.3,4.3,0.5,9.2,0.6,14.2h1.3C80.6,126.8,80.4,122,80.1,117.6z M62.1,1.3c0.1,0,0.3,0,0.4,0c2.4,0,4.8,1.4,4.8,3.8
				c0.1,2.1-1.2,4-3.1,4.7c-0.8-1.8-2.1-3.3-3.8-4.3c-0.7-0.3-1.4-0.6-2.1-0.8C58.5,2.8,60.1,1.4,62.1,1.3z M55.6,5.5
				c0.5,0,1,0.1,1.5,0.1c0.1,0.1,0.2,0.2,0.4,0.2c0.1,0,0.2,0,0.3-0.1c0.7,0.2,1.5,0.5,2.1,0.8c1.5,0.9,2.6,2.3,3.3,3.9
				c0,0.1,0,0.2,0,0.2c0,0.2,0.1,0.3,0.3,0.5c0.2,0.9,0.4,1.8,0.4,2.8c0,3.6-1.3,6-3.8,7.1c0.7-1.3,1.1-2.7,1.3-4.1
				c0-0.2-0.1-0.4-0.2-0.5c-0.2-0.1-0.3-0.2-0.5-0.2c-5.4-0.3-8-2.4-9.5-7.6c0-0.2-0.2-0.4-0.3-0.4c-0.2-0.1-0.4-0.1-0.6,0
				c-1.7,0.8-2.9,2.1-3.8,3.7C47.3,8.4,50.2,5.5,55.6,5.5z M46.1,18.1c0-0.4,0-0.8,0.1-1.2c0.1-0.2,0.2-0.4,0.2-0.6
				c0-0.1,0-0.1,0-0.2c0.4-2.4,1.5-5,3.7-6.4c1.6,5,4.6,7.3,9.8,7.9c-0.3,1.4-0.8,2.8-1.7,4c-0.1,0.1-0.2,0.2-0.3,0.3h0
				c-0.7,0.9-1.6,1.7-2.7,2.2c0,0-0.1,0-0.1,0c-0.2,0-0.4,0.1-0.5,0.2c-1.3,0.5-2.7,0.5-4.1,0.2c-0.1-0.1-0.2-0.1-0.3-0.1
				c0,0-0.1,0-0.1,0C47.7,23.3,46,20.9,46.1,18.1z M48.9,31.7c0.3,0,0.6-0.2,0.7-0.5c0.4-1.7,0.7-3.5,1.1-5.4c0.5,0.1,1,0.2,1.6,0.2
				c0.8,0,1.6-0.1,2.3-0.4c0.2,2.2,0.5,4.3,0.7,6.2c0.1,0.3,0.3,0.6,0.6,0.6c1.1,0.2,2.4,0.3,3.6,0.6c-2.5,4.5-6.4,9.6-10.9,9.6
				c-0.2,0-0.4,0-0.5,0c-2.8-0.2-4.8-2.5-4.7-5.3c0.1-1.8,0.5-3.6,1.2-5.2c0.1-0.2,0.2-0.4,0.2-0.6c0,0,0,0,0,0
				C46.1,31.5,47.5,31.6,48.9,31.7z M37.5,37.6c0.5-3,2.9-5.4,5.9-6c-0.8,1.8-1.2,3.7-1.3,5.6c0,0.2,0,0.4,0,0.6
				c0.1,3.4,3,6.1,6.4,6c5.3,0,9.6-5.7,12.4-10.6c0.1,0,0.3,0,0.4,0c4,0.8,6.9,4.3,7,8.4c0,1.6,0,3.2-0.2,4.8c0,0,0,0,0,0.1
				C63.7,56.2,57.5,65,50,72.5c-1.8,1.7-4.3,2.4-6.7,1.8c-1.8-0.5-3.6-1-5.3-1.6c-0.1-0.2-0.4-0.2-0.5-0.2c0,0,0,0,0,0
				c-4.2-1.5-8.3-3.5-11.9-6.2c-0.5-0.3-0.9-0.6-1.3-1c0.9-2.3,2.5-4.4,4.5-6.1c0.2,0.2,0.3,0.4,0.5,0.6c1.7,1.5,3.5,2.8,5.6,3.8
				c2.3,1.1,4.7,1.8,7.1,2.2c1.2,0.2,2.5-0.3,3.2-1.3c4.7-6.3,8.4-11.1,12.8-16.5c0.2-0.3,0.2-0.7-0.1-0.9c-0.2-0.2-0.7-0.2-0.9,0.1
				c-4.4,5.5-8.1,10.3-12.8,16.6c-0.4,0.6-1.2,0.9-1.9,0.8c-2-0.3-4-0.9-5.8-1.7c0.1-0.1,0.1-0.3,0-0.4L32.8,52
				c0.3-0.4,0.5-0.9,0.8-1.4C36,46.3,36.9,41.7,37.5,37.6z M20.9,62.4c-2.1-2.2-3.2-5-3.4-8v-0.3c0-0.3,0-0.6,0.1-0.9
				c0.1-0.1,0.2-0.1,0.4-0.1c0.7,0,2.1,1,2.9,1.5s1,0.7,1.3,0.7c0.4-0.1,0.9-0.3,1.1-0.6c0.1-0.2,0.5-0.5,0.6-0.5
				c0.9,0,2.5,2.1,3.6,3.5c0.1,0.2,0.2,0.3,0.4,0.5c-2,1.7-3.6,3.8-4.8,6.3C22.3,63.8,21.6,63.1,20.9,62.4z M1.5,39l23-7.3l7,20.5
				l3.4,10.1c-1.8-0.9-3.3-2-4.8-3.3c-0.3-0.3-0.6-0.6-0.9-1c-0.2-0.3-0.5-0.6-0.7-0.9c-1.5-2-3-4.1-4.6-4.1
				c-0.6,0.1-1.1,0.3-1.5,0.8c-0.1,0-0.2,0.1-0.3,0.2c-0.1-0.1-0.3-0.2-0.5-0.4c-1.4-1-2.7-1.8-3.7-1.8c-0.5,0-0.9,0.2-1.3,0.5
				c-0.4,0.6-0.6,1.2-0.5,1.9v0.3c0.2,3.3,1.5,6.5,3.8,8.8c0.9,0.9,1.9,1.8,2.8,2.5c0.1,0.2,0.2,0.3,0.4,0.4c0.1,0,0.1,0,0.2,0
				c0.2,0.1,0.3,0.3,0.5,0.4l-10.1,3.7L1.5,39z M69.6,90.3c-0.1,0-0.1,0-0.2,0.1c-0.2,0.1-0.4,0.2-0.6,0.3c-0.3,0.2-0.6,0.3-0.7,0.4
				c-3.8,1.8-7.9,2.7-12,2.6c-6.7,0.1-13.2-0.8-19.6-2.5c1.3-4.1,2-8.4,2-12.7c0-1.5-0.1-2.9-0.3-4.4c1.5,0.5,3,1,4.6,1.4
				c0.7,0.2,1.4,0.3,2.1,0.3c2.2,0,4.4-0.9,5.9-2.4c6.7-6.6,12.2-14.2,16.5-22.4c-0.1,0.6-0.3,1.1-0.4,1.7c-0.7,2.5-1.6,4.8-2.8,7.1
				c-1.8,3.8-3.6,7.5-2.7,12.2c1,5.6,4.7,9.2,6.3,10.7l0.3,0.3c0.3,0.3,0.6,0.7,0.9,1c1.2,1.5,2.2,3,3.2,4.6
				C71.4,89.3,70.5,89.8,69.6,90.3z"/>
			<path class="st4" d="M61.2,117.3c-1-2-2.1-4.1-3.2-6.2c-1-2.2-1.9-4.4-2.6-6.7c-0.2-0.6-0.4-1.3-0.7-1.9
				c-0.1-0.3-0.5-0.5-0.8-0.4c-0.2,0.1-0.4,0.3-0.4,0.6c-0.7,6.9-2,17.5-3.8,29.4l1.3-0.2c1.6-10.3,2.7-19.6,3.5-26.3
				c0.7,2,1.4,4,2.3,6c1,2.1,2.1,4.2,3.2,6.2c2,3.8,3.8,7.4,5.5,11.3c0.4,0.9,0.8,1.9,1.2,2.8h1.4c-0.5-1.1-1-2.2-1.4-3.3
				C65,124.7,63.1,120.9,61.2,117.3z"/>
			<path class="st4" d="M38.7,131.7L38.7,131.7c0,0.1,0,0.1,0,0.2V131.7z"/>
		</g>
	</g>
</g>
</svg>
