<svg xmlns="http://www.w3.org/2000/svg" viewBox="0 0 161.3 32.5"><defs><style>.cls-1{fill:#4b5157;}.cls-2{fill:#3da8d8;}.cls-3{fill:#642d6d;}.cls-4{fill:#e12c7a;}</style></defs><title>logo-bdm</title><g id="Calque_2" data-name="Calque 2"><g id="Calque_1-2" data-name="Calque 1"><path class="cls-1" d="M87,14.6a7.61,7.61,0,0,0,2.9-6.5c0-5.4-3.2-8.1-9.5-8.1H68V32.5H81.6c3.3,0,5.9-.8,7.8-2.5a8.9,8.9,0,0,0,2.9-7C92.4,18.9,90.6,16.1,87,14.6Zm-4.7-3a4.25,4.25,0,0,1-2.8.8H74.7V6.1h4.8a4.28,4.28,0,0,1,2.8.7,3,3,0,0,1,.9,2.4A2.82,2.82,0,0,1,82.3,11.6Zm-7.6,6.9h6a5.84,5.84,0,0,1,3.5.9,3.51,3.51,0,0,1,1.2,3,3.64,3.64,0,0,1-1.1,3,5.84,5.84,0,0,1-3.5.9h-6l-.1-7.8Z"/><path class="cls-1" d="M116.7,1.9A17.23,17.23,0,0,0,108.4,0H96.1V32.5h12.3a18.45,18.45,0,0,0,8.3-1.9,14,14,0,0,0,5.7-5.6,17,17,0,0,0,2-8.7,18.61,18.61,0,0,0-2-8.7A14.21,14.21,0,0,0,116.7,1.9Zm-8.3,24.5h-5.5V6.1h5.5a8.28,8.28,0,0,1,6.5,2.6c1.5,1.8,2.2,4.3,2.2,7.5a12,12,0,0,1-2.2,7.5A7.89,7.89,0,0,1,108.4,26.4Z"/><polygon class="cls-1" points="156.8 0 151.4 0 144 13.8 136.6 0 131.2 0 126.7 32.5 133.7 32.5 136.2 12.5 144 26.4 151.8 12.5 154.3 32.5 161.3 32.5 156.8 0"/><polygon class="cls-2" points="59.9 32.5 38.8 0 22 32.5 59.9 32.5"/><polygon class="cls-3" points="28.1 13.6 18.3 32.5 22 32.5 29.9 17.1 28.1 13.6"/><polygon class="cls-4" points="21 0 0 32.5 18.3 32.5 28.1 13.6 21 0"/></g></g></svg>