<?xml version="1.0" encoding="UTF-8"?>
<svg width="126px" height="27px" viewBox="0 0 126 27" version="1.1" xmlns="http://www.w3.org/2000/svg" xmlns:xlink="http://www.w3.org/1999/xlink">
    <!-- Generator: Sketch 53.2 (72643) - https://sketchapp.com -->
    <title>logo-bdm</title>
    <desc>Created with Sketch.</desc>
    <g id="Page-1" stroke="none" stroke-width="1" fill="none" fill-rule="evenodd">
        <g id="logo-bdm" fill-rule="nonzero">
            <path d="M67.6666667,12.1333333 C69.2088217,10.9252535 70.05333,9.03239023 69.9222222,7.07777778 C69.9222222,2.87777778 67.4333333,0.777777778 62.5333333,0.777777778 L52.8888889,0.777777778 L52.8888889,26.0555556 L63.4666667,26.0555556 C66.0333333,26.0555556 68.0555556,25.4333333 69.5333333,24.1111111 C71.0587305,22.7229436 71.8856712,20.7268799 71.7888889,18.6666667 C71.8666667,15.4777778 70.4666667,13.3 67.6666667,12.1333333 Z M64.0111111,9.8 C63.3811092,10.2573932 62.6098823,10.4777437 61.8333333,10.4222222 L58.1,10.4222222 L58.1,5.52222222 L61.8333333,5.52222222 C62.6004002,5.44608743 63.3701156,5.63851629 64.0111111,6.06666667 C64.5118927,6.55287296 64.768715,7.23773246 64.7111111,7.93333333 C64.790376,8.63177635 64.5300815,9.3258952 64.0111111,9.8 Z M58.1,15.1666667 L62.7666667,15.1666667 C63.7252615,15.1063122 64.6783153,15.3513832 65.4888889,15.8666667 C66.1607748,16.4465008 66.5088747,17.3167505 66.4222222,18.2 C66.5119046,19.0680699 66.1962345,19.9289885 65.5666667,20.5333333 C64.756093,21.0486168 63.8030392,21.2936878 62.8444444,21.2333333 L58.1777778,21.2333333 L58.1,15.1666667 L58.1,15.1666667 Z" id="Shape" fill="#4B5157"></path>
            <path d="M90.7666667,2.25555556 C88.7723327,1.23064781 86.5527071,0.722540739 84.3111111,0.777777778 L74.7444444,0.777777778 L74.7444444,26.0555556 L84.3111111,26.0555556 C86.5487505,26.0730333 88.7594688,25.5669653 90.7666667,24.5777778 C92.6361914,23.587437 94.176728,22.0739274 95.2,20.2222222 C96.3120454,18.1455107 96.8490801,15.8094096 96.7555556,13.4555556 C96.7937057,11.1072008 96.2598285,8.78483479 95.2,6.68888889 C94.1811465,4.8141498 92.6414058,3.27440903 90.7666667,2.25555556 Z M84.3111111,21.3111111 L80.0333333,21.3111111 L80.0333333,5.52222222 L84.3111111,5.52222222 C86.2123945,5.41569693 88.063341,6.15607555 89.3666667,7.54444444 C90.5333333,8.94444444 91.0777778,10.8888889 91.0777778,13.3777778 C91.174376,15.4586917 90.5720403,17.5121089 89.3666667,19.2111111 C88.1043659,20.665628 86.2324591,21.4431893 84.3111111,21.3111111 Z" id="Shape" fill="#4B5157"></path>
            <polygon id="Path" fill="#4B5157" points="121.955556 0.777777778 117.755556 0.777777778 112 11.5111111 106.244444 0.777777778 102.044444 0.777777778 98.5444444 26.0555556 103.988889 26.0555556 105.933333 10.5 112 21.3111111 118.066667 10.5 120.011111 26.0555556 125.455556 26.0555556"></polygon>
            <polygon id="Path" fill="#3DA8D8" points="46.5888889 26.0555556 30.1777778 0.777777778 17.1111111 26.0555556"></polygon>
            <polygon id="Path" fill="#642D6D" points="21.8555556 11.3555556 14.2333333 26.0555556 17.1111111 26.0555556 23.2555556 14.0777778"></polygon>
            <polygon id="Path" fill="#E12C7A" points="16.3333333 0.777777778 0 26.0555556 14.2333333 26.0555556 21.8555556 11.3555556"></polygon>
        </g>
    </g>
</svg>