<svg xmlns="http://www.w3.org/2000/svg" viewBox="0 0 460.9 461"><defs><style>.cls-1{fill:#2799cb;stroke:#2799cb;stroke-miterlimit:10;stroke-width:10px;}</style></defs><title>search</title><g id="Calque_2" data-name="Calque 2"><g id="Capa_1" data-name="Capa 1"><path class="cls-1" d="M452,433,342.4,323.4a191.52,191.52,0,0,0,47.2-126.1C389.6,91.2,303.3,5,197.3,5S5,91.3,5,197.3,91.3,389.6,197.3,389.6a191.52,191.52,0,0,0,126.1-47.2L433,452a13.59,13.59,0,0,0,9.5,4,13.17,13.17,0,0,0,9.5-4A13.52,13.52,0,0,0,452,433ZM31.9,197.3C31.9,106.1,106.1,32,197.2,32s165.3,74.2,165.3,165.3S288.4,362.7,197.2,362.7,31.9,288.5,31.9,197.3Z"/></g></g></svg>