<svg xmlns="http://www.w3.org/2000/svg" viewBox="0 0 512 492"><defs><style>.cls-1{fill:#ffc9e0;}.cls-2{fill:#f53f8d;}.cls-3{fill:#fff;}.cls-4{fill:#d01a68;}.cls-5{fill:#f2a4c6;}.cls-6{fill:#eb6aa1;}</style></defs><title>agenda</title><g id="Calque_2" data-name="Calque 2"><g id="Capa_1" data-name="Capa 1"><path class="cls-1" d="M0,124V452a40,40,0,0,0,40,40H472a40.05,40.05,0,0,0,40-40V124Z"/><path class="cls-2" d="M472,12H40A40,40,0,0,0,0,52v72H512V52A40,40,0,0,0,472,12ZM64,92A24,24,0,1,1,88,68,24,24,0,0,1,64,92Zm384,0a24,24,0,1,1,24-24A24,24,0,0,1,448,92Z"/><path class="cls-3" d="M256,196a32,32,0,1,0,32,32A32,32,0,0,0,256,196Z"/><path class="cls-3" d="M176,196a32,32,0,1,0,32,32A32,32,0,0,0,176,196Z"/><path class="cls-3" d="M96,196a32,32,0,1,0,32,32A32,32,0,0,0,96,196Z"/><path class="cls-3" d="M336,196a32,32,0,1,0,32,32A32,32,0,0,0,336,196Z"/><path class="cls-3" d="M416,260a32,32,0,1,0-32-32A32,32,0,0,0,416,260Z"/><path class="cls-3" d="M256,276a32,32,0,1,0,32,32A32,32,0,0,0,256,276Z"/><path class="cls-3" d="M176,276a32,32,0,1,0,32,32A32,32,0,0,0,176,276Z"/><path class="cls-3" d="M96,276a32,32,0,1,0,32,32A32,32,0,0,0,96,276Z"/><path class="cls-3" d="M336,276a32,32,0,1,0,32,32A32,32,0,0,0,336,276Z"/><path class="cls-3" d="M416,276a32,32,0,1,0,32,32A32,32,0,0,0,416,276Z"/><path class="cls-3" d="M256,356a32,32,0,1,0,32,32A32,32,0,0,0,256,356Z"/><path class="cls-3" d="M176,356a32,32,0,1,0,32,32A32,32,0,0,0,176,356Z"/><path class="cls-3" d="M96,356a32,32,0,1,0,32,32A32,32,0,0,0,96,356Z"/><path class="cls-3" d="M336,356a32,32,0,1,0,32,32A32,32,0,0,0,336,356Z"/><path class="cls-3" d="M416,356a32,32,0,1,0,32,32A32,32,0,0,0,416,356Z"/><path class="cls-4" d="M64,80A12,12,0,0,1,52,68V12a12,12,0,0,1,24,0V68A12,12,0,0,1,64,80Z"/><path class="cls-4" d="M448,80a12,12,0,0,1-12-12V12a12,12,0,0,1,24,0V68A12,12,0,0,1,448,80Z"/><circle class="cls-5" cx="96" cy="228" r="32"/><circle class="cls-6" cx="256" cy="388" r="32"/><circle class="cls-2" cx="336" cy="308" r="32"/></g></g></svg>