<svg xmlns="http://www.w3.org/2000/svg" viewBox="0 0 430.12 430.12"><defs><style>.cls-1{fill:#fff;}</style></defs><title>rss</title><g id="Calque_2" data-name="Calque 2"><g id="Capa_1" data-name="Capa 1"><path id="RSS" class="cls-1" d="M97.49,332.47a56.57,56.57,0,0,1,0,80.42l0,0a57.17,57.17,0,0,1-80.74,0,56.65,56.65,0,0,1,0-80.43h0a57.07,57.07,0,0,1,80.74,0Zm0,0h0ZM16.75,412.91v0h0ZM.05,146.26v82.13a200.27,200.27,0,0,1,142.27,59.1,200.74,200.74,0,0,1,59,142.48h0v.15h82.47a283.13,283.13,0,0,0-83.28-200.55A282.84,282.84,0,0,0,.05,146.26ZM.2,0V82.09c191.66.14,347.46,156.18,347.59,348h82.33c-.06-118.57-48.25-226-126.14-303.94S118.72.05.2,0Z"/></g></g></svg>